SplineFontDB: 3.0
FontName: DOF-1-Regular
FullName: DOF-1 Regular
FamilyName: DOF-1
Weight: Regular
Copyright: The DOF-1 typeface was created by Paul Bernhard with Donald E. Knuth's typographic system METAFONT. METAFONT's bitmap ouput was converted to outlines via mftrace.
Version: 1.1
ItalicAngle: 0
UnderlinePosition: -100
UnderlineWidth: 45
Ascent: 819
Descent: 205
InvalidEm: 0
LayerCount: 2
Layer: 0 0 "Back" 1
Layer: 1 0 "Fore" 0
FSType: 0
OS2Version: 0
OS2_WeightWidthSlopeOnly: 0
OS2_UseTypoMetrics: 0
CreationTime: 1493716853
ModificationTime: 1493887064
PfmFamily: 17
TTFWeight: 400
TTFWidth: 5
LineGap: 92
VLineGap: 0
OS2TypoAscent: 0
OS2TypoAOffset: 1
OS2TypoDescent: 0
OS2TypoDOffset: 1
OS2TypoLinegap: 92
OS2WinAscent: 0
OS2WinAOffset: 1
OS2WinDescent: 0
OS2WinDOffset: 1
HheadAscent: 0
HheadAOffset: 1
HheadDescent: 0
HheadDOffset: 1
OS2Vendor: 'PfEd'
MarkAttachClasses: 1
DEI: 91125
LangName: 1033
Encoding: ISO8859-1
UnicodeInterp: none
NameList: AGL For New Fonts
DisplaySize: -48
AntiAlias: 1
FitToEm: 0
WinInfo: 25 25 10
BeginPrivate: 3
lenIV 1 4
BlueValues 2 []
ForceBold 5 false
EndPrivate
BeginChars: 260 102

StartChar: exclam
Encoding: 33 33 1
Width: 303
VWidth: 910
Flags: HW
LayerCount: 2
Fore
SplineSet
134 818 m 0
 159 822 189 816 199 806 c 2
 202 804 l 1
 202 492 l 1
 202 179 l 1
 198 176 l 2
 190 168 173 164 152 164 c 0
 130 164 113 168 105 176 c 2
 101 179 l 1
 101 491 l 1
 101 803 l 1
 104 806 l 2
 109 811 119 815 134 818 c 0
136 36 m 0
 145 37 168 37 177 35 c 0
 210 28 210 10 177 3 c 0
 164 0 139 0 126 3 c 0
 111 7 101 12 101 18 c 0
 101 26 114 33 136 36 c 0
EndSplineSet
Validated: 33
EndChar

StartChar: quotedbl
Encoding: 34 34 2
Width: 303
VWidth: 910
Flags: HW
LayerCount: 2
Fore
SplineSet
63 818 m 0
 88 822 118 816 128 806 c 2
 131 804 l 1
 131 740 l 2
 131 678 131 677 129 674 c 0
 124 666 104 661 81 661 c 0
 57 661 37 666 32 674 c 0
 30 677 30 678 30 740 c 2
 30 803 l 1
 33 806 l 2
 38 811 48 815 63 818 c 0
205 818 m 0
 230 822 260 816 270 806 c 2
 273 804 l 1
 273 740 l 2
 273 678 273 677 271 674 c 0
 266 666 246 661 223 661 c 0
 199 661 179 666 174 674 c 0
 172 677 172 678 172 740 c 2
 172 803 l 1
 175 806 l 2
 180 811 190 815 205 818 c 0
EndSplineSet
Validated: 33
EndChar

StartChar: numbersign
Encoding: 35 35 3
Width: 607
VWidth: 910
Flags: HW
LayerCount: 2
Fore
SplineSet
258 613 m 0
 272 615 293 614 305 610 c 0
 315 607 322 602 323 597 c 0
 324 596 290 479 275 431 c 0
 275 429 279 429 340 429 c 2
 404 429 l 1
 406 434 l 2
 427 506 454 599 456 601 c 0
 460 606 468 610 481 613 c 0
 493 615 518 615 530 612 c 0
 545 608 554 602 554 596 c 0
 554 594 544 557 531 512 c 0
 517 467 506 430 506 430 c 2
 506 429 513 429 521 429 c 0
 548 429 567 424 574 416 c 0
 576 414 577 412 577 410 c 0
 577 407 572 402 567 400 c 0
 556 394 542 391 515 391 c 2
 495 391 l 1
 471 309 l 2
 457 263 446 225 445 224 c 0
 445 223 449 223 460 223 c 0
 482 223 494 221 506 216 c 0
 521 209 519 196 501 191 c 0
 489 187 484 187 459 186 c 2
 434 186 l 1
 411 107 l 2
 382 5 384 15 380 11 c 0
 365 -2 316 -4 293 7 c 0
 288 10 285 13 284 17 c 0
 283 18 317 136 332 184 c 0
 332 186 329 186 268 186 c 2
 203 186 l 1
 201 180 l 2
 180 108 153 16 151 14 c 0
 147 9 140 5 127 2 c 0
 115 0 89 0 77 3 c 0
 62 7 53 12 53 18 c 0
 53 20 63 58 76 103 c 0
 90 148 101 185 101 185 c 2
 101 186 94 186 86 186 c 0
 59 186 40 190 33 198 c 0
 29 203 29 205 33 210 c 0
 41 219 58 223 92 223 c 2
 113 223 l 1
 137 306 l 2
 151 352 161 389 162 390 c 0
 162 391 158 391 147 391 c 0
 125 391 113 394 101 399 c 0
 86 406 88 418 106 423 c 0
 118 427 123 428 148 429 c 2
 173 430 l 1
 197 508 l 2
 226 609 223 599 227 603 c 0
 232 608 244 611 258 613 c 0
389 376 m 2
 393 391 l 1
 329 391 l 2
 278 391 264 391 263 390 c 0
 263 389 252 353 238 308 c 0
 225 262 215 225 215 224 c 0
 214 223 227 223 279 223 c 2
 343 224 l 1
 364 292 l 2
 375 330 386 368 389 376 c 2
EndSplineSet
Validated: 33
EndChar

StartChar: dollar
Encoding: 36 36 4
Width: 546
VWidth: 910
Flags: HW
LayerCount: 2
Fore
SplineSet
256 818 m 0
 281 822 311 816 321 806 c 2
 324 804 l 1
 324 767 l 1
 324 731 l 1
 337 730 l 2
 371 725 405 716 427 705 c 0
 464 686 483 662 486 629 c 2
 486 621 l 1
 482 617 l 2
 474 609 458 605 436 605 c 0
 413 605 397 609 390 616 c 0
 385 620 385 621 385 628 c 0
 382 657 366 677 333 687 c 2
 324 691 l 1
 324 554 l 1
 324 417 l 1
 339 411 l 2
 358 404 389 388 404 379 c 0
 447 353 473 321 482 287 c 0
 491 250 484 207 460 172 c 0
 433 131 386 102 330 91 c 2
 324 90 l 1
 324 53 l 1
 324 15 l 1
 321 13 l 2
 304 -4 241 -3 226 13 c 2
 223 16 l 1
 223 52 l 1
 223 88 l 1
 211 89 l 2
 195 92 172 95 157 100 c 0
 96 117 64 148 61 190 c 2
 61 198 l 1
 65 202 l 2
 73 210 89 214 112 214 c 0
 134 214 150 210 157 203 c 0
 162 199 162 198 162 191 c 0
 164 167 176 150 198 138 c 0
 205 134 209 133 218 130 c 2
 223 128 l 1
 223 265 l 1
 223 401 l 1
 205 409 l 2
 183 417 149 434 135 443 c 0
 78 478 53 519 55 570 c 0
 59 647 120 709 212 727 c 1
 223 730 l 1
 223 766 l 1
 224 804 l 1
 227 806 l 2
 232 811 241 815 256 818 c 0
222 461 m 2
 223 461 223 511 223 571 c 0
 223 634 223 679 222 679 c 2
 222 679 219 677 214 674 c 0
 179 649 159 612 156 569 c 0
 155 551 159 535 165 520 c 0
 175 501 190 483 213 468 c 0
 218 464 222 461 222 461 c 2
333 350 m 0
 328 353 325 355 325 355 c 2
 324 355 324 307 324 248 c 0
 324 182 324 143 325 143 c 2
 325 143 329 146 333 149 c 0
 353 164 369 187 377 212 c 0
 382 227 384 238 384 255 c 0
 385 272 383 280 378 294 c 0
 370 315 356 332 333 350 c 0
EndSplineSet
Validated: 33
EndChar

StartChar: percent
Encoding: 37 37 5
Width: 667
VWidth: 910
Flags: HW
LayerCount: 2
Fore
SplineSet
147 823 m 0
 179 828 216 819 216 806 c 0
 216 801 212 798 201 793 c 0
 196 790 190 787 186 785 c 0
 160 767 139 738 132 703 c 0
 129 691 129 667 131 656 c 0
 134 640 142 621 151 609 c 0
 156 603 165 594 170 591 c 0
 174 589 175 590 184 597 c 0
 194 606 203 620 208 636 c 0
 210 642 210 645 210 657 c 0
 210 672 209 677 204 690 c 0
 199 701 199 702 203 707 c 0
 207 711 214 713 224 716 c 0
 230 718 234 718 250 718 c 0
 271 718 279 717 290 712 c 0
 296 708 300 704 305 694 c 0
 310 680 311 673 311 657 c 0
 311 644 311 641 309 634 c 0
 301 604 279 579 250 565 c 0
 204 544 138 544 94 566 c 0
 60 583 38 613 30 653 c 0
 28 665 28 692 31 705 c 0
 41 753 71 790 117 813 c 0
 127 818 137 822 147 823 c 0
570 818 m 0
 590 821 614 818 627 811 c 0
 632 809 637 804 637 801 c 0
 637 799 533 638 383 405 c 0
 157 56 129 12 125 9 c 0
 108 -2 62 -3 40 7 c 0
 35 11 30 15 30 19 c 0
 31 21 534 800 539 806 c 0
 543 811 556 816 570 818 c 0
472 269 m 0
 483 270 502 270 514 269 c 0
 581 263 624 227 637 167 c 0
 639 155 639 128 636 115 c 0
 627 72 602 38 566 15 c 0
 556 9 543 2 536 -1 c 0
 503 -11 451 -2 451 14 c 0
 451 19 455 21 466 26 c 0
 471 29 478 33 482 35 c 0
 508 53 528 82 535 117 c 0
 538 129 538 152 536 163 c 0
 533 179 525 198 516 211 c 0
 511 216 502 225 497 228 c 0
 493 230 492 229 483 222 c 0
 473 213 464 199 459 183 c 0
 457 177 457 174 457 163 c 0
 457 148 458 142 463 129 c 0
 468 118 468 117 464 112 c 0
 460 108 453 106 443 103 c 0
 437 101 433 101 417 101 c 0
 396 101 388 102 377 107 c 0
 371 111 367 115 362 125 c 0
 357 139 356 146 356 162 c 0
 356 175 356 178 358 186 c 0
 368 221 394 247 433 260 c 0
 442 263 460 268 472 269 c 0
EndSplineSet
Validated: 33
EndChar

StartChar: ampersand
Encoding: 38 38 6
Width: 546
VWidth: 910
Flags: HW
LayerCount: 2
Fore
SplineSet
250 824 m 0
 261 825 296 824 307 823 c 0
 343 817 371 804 394 784 c 0
 409 769 419 756 430 735 c 0
 446 700 455 657 455 615 c 0
 455 580 445 549 423 516 c 0
 401 481 367 448 315 411 c 0
 305 404 289 393 280 386 c 2
 264 374 l 1
 269 363 l 2
 279 340 303 297 319 269 c 0
 344 227 390 159 392 162 c 0
 394 164 400 200 400 214 c 0
 400 219 399 220 402 223 c 0
 405 227 413 231 423 233 c 0
 429 235 434 235 451 235 c 0
 467 235 471 235 477 233 c 0
 487 231 495 227 498 223 c 0
 501 220 501 219 501 213 c 0
 501 196 497 169 492 150 c 0
 486 130 475 108 464 91 c 2
 459 82 l 2
 459 81 480 61 492 51 c 0
 497 46 508 39 515 34 c 0
 522 29 529 25 529 24 c 0
 530 23 531 20 531 18 c 0
 531 1 468 -7 440 8 c 0
 435 10 417 22 410 27 c 2
 405 31 l 1
 400 27 l 2
 390 22 371 12 357 7 c 0
 342 2 326 -1 309 -4 c 0
 294 -6 257 -6 243 -4 c 0
 193 2 156 19 125 50 c 0
 97 79 77 115 67 161 c 0
 62 180 62 193 62 216 c 0
 62 239 63 246 69 265 c 0
 80 300 108 335 149 370 c 2
 159 379 l 1
 157 383 l 2
 152 391 142 418 134 438 c 0
 113 491 98 540 93 581 c 0
 88 621 92 669 106 710 c 0
 111 723 122 744 129 755 c 0
 156 796 194 819 250 824 c 0
279 784 m 0
 274 788 272 788 266 784 c 0
 246 773 231 754 217 729 c 0
 204 702 196 672 193 637 c 0
 189 594 197 551 218 488 c 0
 225 465 236 437 237 437 c 0
 238 437 242 439 247 444 c 0
 313 495 346 542 353 595 c 0
 356 618 353 652 346 682 c 0
 341 706 328 735 316 751 c 0
 306 766 293 778 279 784 c 0
204 291 m 0
 199 299 195 307 195 307 c 2
 193 307 182 287 177 279 c 0
 168 260 163 242 162 223 c 0
 161 202 165 174 171 153 c 0
 185 100 214 59 250 40 c 0
 262 35 272 32 277 32 c 0
 297 35 329 54 347 75 c 2
 352 81 l 1
 347 86 l 2
 303 133 248 213 204 291 c 0
EndSplineSet
Validated: 33
EndChar

StartChar: parenleft
Encoding: 40 40 7
Width: 212
VWidth: 910
Flags: HW
LayerCount: 2
Fore
SplineSet
113 848 m 0
 122 849 143 849 152 847 c 0
 167 845 178 840 181 835 c 0
 182 831 182 831 179 817 c 0
 154 712 138 605 133 488 c 0
 131 459 131 360 133 331 c 0
 138 214 154 107 179 2 c 0
 182 -12 182 -11 181 -15 c 0
 178 -20 167 -26 151 -29 c 0
 139 -31 115 -30 105 -27 c 0
 95 -24 88 -21 85 -18 c 0
 82 -15 80 -11 73 22 c 0
 51 119 37 221 32 330 c 0
 30 359 30 461 32 490 c 0
 37 599 51 700 73 797 c 0
 80 829 82 834 84 837 c 0
 89 842 101 846 113 848 c 0
EndSplineSet
Validated: 33
EndChar

StartChar: parenright
Encoding: 41 41 8
Width: 212
VWidth: 910
Flags: HW
LayerCount: 2
Fore
SplineSet
60 847 m 0
 70 850 98 850 107 847 c 0
 117 844 124 840 127 837 c 0
 130 834 132 830 139 797 c 0
 161 700 175 599 180 490 c 0
 182 461 182 359 180 330 c 0
 175 221 161 119 139 22 c 0
 132 -11 130 -15 127 -18 c 0
 124 -21 117 -24 107 -27 c 0
 97 -30 73 -31 61 -29 c 0
 45 -26 34 -20 31 -15 c 0
 30 -11 30 -12 33 2 c 0
 58 107 74 214 79 331 c 0
 81 360 81 459 79 488 c 0
 74 605 58 712 33 817 c 0
 30 831 30 831 31 835 c 0
 34 840 45 844 60 847 c 0
EndSplineSet
Validated: 33
EndChar

StartChar: asterisk
Encoding: 42 42 9
Width: 485
VWidth: 910
Flags: HW
LayerCount: 2
Fore
SplineSet
225 818 m 0
 250 822 280 816 290 806 c 2
 293 804 l 1
 293 760 l 1
 293 716 l 1
 313 728 l 2
 338 743 345 745 370 745 c 0
 395 745 415 739 420 730 c 0
 425 723 424 722 360 685 c 0
 329 667 303 653 303 653 c 1
 303 653 329 638 360 620 c 0
 424 583 425 582 420 575 c 0
 415 566 395 561 370 561 c 0
 345 561 338 562 313 577 c 2
 293 589 l 1
 293 545 l 1
 293 502 l 1
 290 499 l 2
 275 482 210 482 195 499 c 2
 192 502 l 1
 192 545 l 1
 192 589 l 1
 172 577 l 2
 147 562 140 561 115 561 c 0
 90 561 71 566 66 575 c 0
 61 582 62 583 126 620 c 0
 157 638 182 653 182 653 c 1
 182 653 157 667 126 685 c 0
 62 722 61 723 66 730 c 0
 71 739 90 745 115 745 c 0
 140 745 147 743 172 728 c 2
 192 716 l 1
 192 760 l 1
 192 803 l 1
 195 806 l 2
 200 811 210 815 225 818 c 0
EndSplineSet
Validated: 33
EndChar

StartChar: plus
Encoding: 43 43 10
Width: 607
VWidth: 910
Flags: HW
LayerCount: 2
Fore
SplineSet
286 613 m 0
 311 617 341 612 351 602 c 2
 354 599 l 1
 354 462 l 1
 354 326 l 1
 445 326 l 2
 541 326 544 326 558 321 c 0
 569 318 577 313 577 308 c 0
 577 303 569 296 558 293 c 0
 544 288 541 289 445 289 c 2
 354 289 l 1
 354 152 l 1
 354 15 l 1
 351 13 l 2
 334 -4 271 -3 256 13 c 2
 253 16 l 1
 253 153 l 1
 253 289 l 1
 162 289 l 2
 66 289 63 288 49 293 c 0
 38 296 30 303 30 308 c 0
 30 313 38 318 49 321 c 0
 63 326 66 326 162 326 c 2
 253 326 l 1
 253 461 l 1
 253 598 l 1
 256 602 l 2
 261 607 271 610 286 613 c 0
EndSplineSet
Validated: 33
EndChar

StartChar: comma
Encoding: 44 44 11
Width: 182
VWidth: 910
Flags: HW
LayerCount: 2
Fore
SplineSet
74 36 m 0
 99 40 129 35 139 25 c 2
 142 22 l 1
 142 8 l 2
 140 -29 131 -64 115 -96 c 0
 109 -109 107 -111 100 -114 c 0
 90 -119 82 -120 66 -121 c 0
 44 -121 28 -118 17 -112 c 0
 13 -110 10 -106 10 -103 c 0
 10 -102 12 -96 15 -91 c 0
 30 -59 39 -27 41 9 c 0
 41 21 41 21 44 25 c 0
 49 30 59 33 74 36 c 0
EndSplineSet
Validated: 33
EndChar

StartChar: hyphen
Encoding: 45 45 12
Width: 607
VWidth: 910
Flags: HW
LayerCount: 2
Fore
SplineSet
63 325 m 0
 68 326 121 326 303 326 c 0
 551 326 543 326 558 321 c 0
 569 318 577 313 577 308 c 0
 577 303 569 296 558 293 c 0
 543 288 551 289 304 289 c 0
 106 289 70 288 63 289 c 0
 48 292 38 296 33 301 c 0
 29 306 29 308 33 313 c 0
 38 318 48 322 63 325 c 0
EndSplineSet
Validated: 33
EndChar

StartChar: period
Encoding: 46 46 13
Width: 182
VWidth: 910
Flags: HW
LayerCount: 2
Fore
SplineSet
73 44 m 0
 104 48 139 40 148 29 c 0
 153 24 153 20 148 15 c 0
 136 0 90 -4 56 5 c 0
 40 9 30 16 30 22 c 0
 30 27 36 31 42 35 c 0
 49 39 63 43 73 44 c 0
EndSplineSet
Validated: 33
EndChar

StartChar: slash
Encoding: 47 47 14
Width: 425
VWidth: 910
Flags: HW
LayerCount: 2
Fore
SplineSet
328 818 m 0
 348 821 372 818 385 811 c 0
 390 809 395 804 395 801 c 0
 395 797 131 16 128 13 c 0
 119 1 76 -3 49 5 c 0
 39 8 30 13 30 18 c 0
 30 22 294 803 297 806 c 0
 301 811 313 816 328 818 c 0
EndSplineSet
Validated: 33
EndChar

StartChar: zero
Encoding: 48 48 15
Width: 546
VWidth: 910
Flags: HW
LayerCount: 2
Fore
SplineSet
248 824 m 0
 261 825 285 825 298 824 c 0
 356 819 398 799 426 764 c 0
 462 718 483 648 489 536 c 0
 493 475 493 344 489 283 c 0
 481 149 454 71 401 31 c 0
 370 7 325 -5 273 -5 c 0
 221 -5 176 7 146 31 c 0
 92 71 65 149 57 283 c 0
 53 344 53 475 57 536 c 0
 63 648 84 718 120 764 c 0
 148 799 192 819 248 824 c 0
283 786 m 0
 272 788 263 787 249 780 c 0
 229 770 212 752 198 724 c 0
 183 697 174 666 168 625 c 0
 159 571 156 512 156 410 c 0
 156 293 160 225 173 168 c 0
 183 122 199 86 221 61 c 0
 236 45 258 32 273 32 c 0
 288 32 310 45 325 61 c 0
 347 86 363 122 373 168 c 0
 386 225 390 293 390 410 c 0
 390 527 386 594 373 651 c 0
 363 697 347 733 325 758 c 0
 314 771 296 782 283 786 c 0
EndSplineSet
Validated: 33
EndChar

StartChar: one
Encoding: 49 49 16
Width: 379
VWidth: 910
Flags: HW
LayerCount: 2
Fore
SplineSet
251 818 m 0
 276 822 307 816 317 806 c 2
 319 804 l 1
 319 418 l 1
 319 32 l 1
 325 30 l 2
 330 26 334 23 334 19 c 0
 334 11 320 4 299 1 c 0
 290 0 247 0 238 1 c 0
 217 4 203 11 203 19 c 0
 203 23 209 28 214 31 c 2
 218 32 l 1
 218 369 l 1
 218 705 l 1
 215 702 l 2
 202 690 114 611 111 609 c 0
 94 598 46 598 27 609 c 0
 21 612 18 615 18 619 c 0
 18 622 20 624 25 629 c 0
 29 633 74 675 127 722 c 0
 189 778 225 810 228 811 c 0
 233 815 241 816 251 818 c 0
EndSplineSet
Validated: 33
EndChar

StartChar: two
Encoding: 50 50 17
Width: 546
VWidth: 910
Flags: HW
LayerCount: 2
Fore
SplineSet
248 824 m 0
 304 829 364 817 405 792 c 0
 425 780 446 761 458 744 c 0
 475 719 484 693 486 663 c 0
 488 607 470 543 435 484 c 0
 410 440 388 411 317 327 c 0
 261 260 237 226 215 190 c 0
 185 142 167 90 163 46 c 1
 163 37 l 1
 308 37 l 2
 444 36 454 36 460 35 c 0
 474 31 480 28 484 23 c 0
 487 19 487 19 484 15 c 0
 480 10 473 6 459 2 c 0
 452 1 440 1 273 1 c 2
 95 1 l 1
 86 3 l 2
 76 5 67 9 64 13 c 0
 61 16 61 17 61 23 c 0
 61 51 67 88 78 118 c 0
 93 161 118 207 155 256 c 0
 170 277 186 297 219 337 c 0
 268 395 283 414 302 440 c 0
 335 486 356 526 370 567 c 0
 383 607 388 655 382 684 c 0
 374 725 346 759 309 777 c 0
 294 784 286 786 274 786 c 0
 261 786 252 784 238 777 c 0
 193 755 165 712 162 664 c 2
 162 654 l 1
 158 650 l 2
 153 646 145 643 133 640 c 0
 121 638 95 639 84 642 c 0
 75 644 67 648 63 652 c 0
 61 655 61 655 61 665 c 0
 63 692 73 720 89 744 c 0
 96 755 115 773 126 781 c 0
 159 805 201 820 248 824 c 0
EndSplineSet
Validated: 33
EndChar

StartChar: three
Encoding: 51 51 18
Width: 546
VWidth: 910
Flags: HW
LayerCount: 2
Fore
SplineSet
247 824 m 0
 261 825 296 824 309 823 c 0
 349 817 383 804 411 783 c 0
 422 775 439 756 447 745 c 0
 470 715 484 682 490 641 c 0
 492 627 492 589 490 575 c 0
 482 524 462 483 430 450 c 0
 414 435 401 426 382 415 c 2
 371 410 l 1
 379 407 l 1
 440 377 479 318 490 242 c 0
 492 231 492 192 490 182 c 0
 483 127 461 83 427 50 c 0
 396 21 358 3 309 -4 c 0
 286 -7 252 -6 227 -2 c 0
 161 7 108 34 67 80 c 0
 62 86 61 88 61 91 c 0
 61 94 62 94 65 98 c 0
 70 102 76 104 86 107 c 0
 91 108 96 108 112 108 c 0
 129 108 132 108 138 106 c 0
 152 102 154 102 166 89 c 0
 194 59 225 40 258 34 c 0
 274 30 285 33 302 42 c 0
 346 65 379 117 389 180 c 0
 391 195 391 229 389 244 c 0
 379 306 346 358 302 381 c 0
 289 388 283 390 269 391 c 0
 241 393 223 401 223 411 c 0
 223 420 241 427 269 429 c 0
 283 430 289 432 302 439 c 0
 313 444 323 451 334 462 c 0
 349 477 359 492 369 512 c 0
 379 533 385 555 389 580 c 0
 391 591 391 625 389 636 c 0
 383 684 363 726 334 755 c 0
 314 773 291 785 274 787 c 0
 261 788 238 782 220 772 c 0
 199 762 184 749 166 730 c 0
 154 717 152 717 138 713 c 0
 132 711 129 711 112 711 c 0
 96 711 91 711 86 712 c 0
 70 717 61 722 61 728 c 0
 61 731 62 733 67 739 c 0
 112 789 173 818 247 824 c 0
EndSplineSet
Validated: 33
EndChar

StartChar: four
Encoding: 52 52 19
Width: 500
VWidth: 910
Flags: HW
LayerCount: 2
Fore
SplineSet
108 818 m 0
 117 819 141 819 150 817 c 0
 159 814 165 813 170 809 c 0
 177 804 178 818 163 665 c 0
 156 590 149 528 148 526 c 2
 148 523 l 1
 189 523 l 1
 230 523 l 1
 230 561 l 1
 230 599 l 1
 233 602 l 2
 250 618 312 618 329 602 c 2
 331 599 l 1
 331 561 l 1
 331 523 l 1
 380 523 l 2
 431 523 439 523 451 519 c 0
 462 516 471 510 471 505 c 0
 471 500 462 494 451 491 c 0
 439 487 431 486 380 486 c 2
 331 486 l 1
 331 251 l 1
 331 15 l 1
 329 13 l 2
 312 -4 248 -3 233 13 c 2
 230 16 l 1
 230 251 l 1
 230 486 l 1
 154 486 l 2
 88 487 77 487 72 488 c 0
 63 491 57 492 52 496 c 0
 45 501 44 486 60 653 c 0
 69 736 76 803 76 804 c 0
 80 810 91 815 108 818 c 0
EndSplineSet
Validated: 33
EndChar

StartChar: five
Encoding: 53 53 20
Width: 546
VWidth: 910
Flags: HW
LayerCount: 2
Fore
SplineSet
94 818 m 0
 99 819 139 819 277 819 c 0
 443 818 454 818 460 817 c 0
 474 813 480 810 484 805 c 0
 487 801 487 800 484 796 c 0
 480 791 474 788 460 784 c 0
 454 783 444 783 308 782 c 2
 162 782 l 1
 162 691 l 1
 162 600 l 1
 174 604 l 2
 192 610 213 615 238 618 c 0
 243 619 258 619 273 619 c 0
 294 619 300 619 311 617 c 0
 356 611 386 596 413 570 c 0
 442 541 462 502 476 448 c 0
 487 403 491 364 491 308 c 0
 491 251 487 212 476 167 c 0
 462 113 442 74 413 46 c 0
 391 24 368 10 337 2 c 0
 304 -6 264 -7 227 -2 c 0
 161 7 108 34 67 80 c 0
 62 86 61 88 61 91 c 0
 61 94 62 94 65 98 c 0
 70 102 76 104 86 107 c 0
 91 108 96 108 112 108 c 0
 129 108 132 108 138 106 c 0
 152 102 154 102 166 89 c 0
 194 59 225 40 258 34 c 0
 273 31 278 32 291 38 c 0
 328 56 359 105 376 173 c 0
 386 215 390 253 390 308 c 0
 390 343 390 356 386 384 c 0
 374 481 339 552 291 576 c 0
 278 582 273 584 258 581 c 0
 224 574 188 551 163 522 c 0
 157 514 151 511 138 508 c 0
 132 506 128 506 111 506 c 0
 96 506 91 506 86 507 c 0
 76 510 70 512 65 516 c 2
 61 520 l 1
 61 662 l 1
 61 803 l 1
 64 806 l 2
 69 811 79 815 94 818 c 0
EndSplineSet
Validated: 33
EndChar

StartChar: six
Encoding: 54 54 21
Width: 546
VWidth: 910
Flags: HW
LayerCount: 2
Fore
SplineSet
285 829 m 0
 296 830 328 829 340 828 c 0
 396 819 435 795 457 755 c 0
 462 745 462 743 457 738 c 0
 448 730 432 726 407 726 c 0
 378 727 365 733 360 745 c 0
 350 764 331 783 313 790 c 2
 308 793 l 1
 303 791 l 2
 287 786 268 772 254 757 c 0
 247 749 234 734 228 723 c 0
 213 697 197 658 187 618 c 2
 182 603 l 1
 188 605 l 2
 212 615 248 621 281 620 c 0
 317 618 345 612 372 599 c 0
 388 591 399 583 413 570 c 0
 442 541 462 502 476 448 c 0
 487 403 491 364 491 308 c 0
 491 251 487 212 476 167 c 0
 462 113 442 74 413 46 c 0
 399 32 388 23 372 15 c 0
 342 0 314 -5 273 -5 c 0
 232 -5 204 0 175 15 c 0
 158 23 147 32 133 46 c 0
 104 74 84 113 70 167 c 0
 64 194 59 223 56 258 c 0
 54 275 54 367 56 400 c 0
 58 447 62 492 67 526 c 0
 94 723 162 816 285 829 c 0
287 579 m 0
 277 583 271 584 264 581 c 0
 222 566 188 515 170 442 c 0
 160 399 157 362 157 308 c 0
 157 273 156 258 160 230 c 0
 171 140 202 73 245 44 c 0
 263 32 273 30 286 35 c 0
 311 45 335 71 351 105 c 0
 371 144 384 194 389 259 c 0
 391 276 391 338 389 356 c 0
 384 420 371 471 351 510 c 0
 335 544 311 569 287 579 c 0
EndSplineSet
Validated: 33
EndChar

StartChar: seven
Encoding: 55 55 22
Width: 485
VWidth: 910
Flags: HW
LayerCount: 2
Fore
SplineSet
63 818 m 0
 68 819 109 819 242 819 c 0
 424 819 422 820 436 815 c 0
 446 812 455 806 455 801 c 0
 455 799 165 25 161 17 c 0
 157 7 142 2 117 0 c 0
 89 -1 64 6 61 17 c 0
 60 18 115 165 203 399 c 0
 281 608 345 779 346 780 c 0
 346 782 339 782 208 782 c 0
 93 782 70 782 63 783 c 0
 48 786 38 790 33 795 c 0
 29 800 29 801 33 806 c 0
 38 811 48 815 63 818 c 0
EndSplineSet
Validated: 33
EndChar

StartChar: eight
Encoding: 56 56 23
Width: 546
VWidth: 910
Flags: HW
LayerCount: 2
Fore
SplineSet
248 824 m 0
 262 825 296 824 311 822 c 0
 357 815 391 799 421 772 c 0
 454 740 476 695 483 644 c 0
 484 639 484 626 484 614 c 0
 484 595 484 593 482 583 c 0
 474 548 460 521 430 491 c 0
 409 470 385 452 351 430 c 0
 338 423 336 420 338 420 c 0
 383 391 406 373 431 348 c 0
 467 312 486 275 491 234 c 0
 494 207 489 169 479 138 c 0
 455 67 406 20 338 3 c 0
 316 -3 300 -5 273 -5 c 0
 246 -5 230 -3 208 3 c 0
 140 20 91 67 67 138 c 0
 53 178 51 222 59 256 c 0
 73 312 114 355 204 411 c 0
 211 416 217 420 217 420 c 1
 217 420 212 423 207 427 c 0
 183 441 159 457 141 472 c 0
 129 481 107 503 99 513 c 0
 81 536 69 561 64 586 c 0
 62 594 62 598 62 615 c 0
 62 626 62 639 63 644 c 0
 70 695 92 740 125 771 c 0
 157 801 197 819 248 824 c 0
281 786 m 0
 277 787 274 787 273 787 c 0
 265 787 249 780 236 772 c 0
 209 753 186 721 173 683 c 0
 166 659 163 640 163 615 c 0
 163 600 163 596 165 588 c 0
 174 545 202 509 257 470 c 0
 265 465 272 459 274 458 c 2
 277 457 l 1
 289 465 l 2
 345 504 372 540 381 586 c 0
 383 595 383 600 383 615 c 0
 383 625 383 637 382 642 c 0
 375 698 347 747 310 772 c 0
 301 777 287 784 281 786 c 0
289 374 m 0
 284 378 279 381 278 382 c 0
 277 383 272 380 260 372 c 0
 200 331 171 297 160 254 c 0
 149 210 159 151 184 106 c 0
 202 73 229 47 255 36 c 0
 267 31 272 31 279 33 c 0
 298 38 324 54 340 73 c 0
 371 108 387 156 390 209 c 0
 391 236 386 259 374 284 c 0
 359 314 330 345 289 374 c 0
EndSplineSet
Validated: 33
EndChar

StartChar: nine
Encoding: 57 57 24
Width: 546
VWidth: 910
Flags: HW
LayerCount: 2
Fore
SplineSet
249 824 m 0
 260 825 296 824 309 823 c 0
 334 819 352 814 372 804 c 0
 388 796 399 788 413 775 c 0
 442 746 462 707 476 653 c 0
 482 626 487 598 490 563 c 0
 492 545 492 452 490 420 c 0
 482 248 454 136 402 67 c 0
 362 13 303 -14 231 -11 c 0
 163 -8 114 19 89 65 c 0
 84 75 84 76 89 81 c 0
 98 89 115 93 140 93 c 0
 168 92 182 87 187 75 c 0
 197 56 215 36 233 29 c 2
 238 26 l 1
 243 28 l 2
 259 33 278 47 292 62 c 0
 299 70 313 85 319 96 c 0
 334 122 350 161 360 201 c 2
 364 217 l 1
 358 214 l 2
 334 204 298 198 265 199 c 0
 229 201 201 207 175 220 c 0
 158 228 147 236 133 250 c 0
 104 278 84 317 70 371 c 0
 64 399 59 427 56 462 c 0
 54 479 54 545 56 563 c 0
 63 648 83 709 116 755 c 0
 124 766 142 784 153 791 c 0
 178 809 209 820 249 824 c 0
287 784 m 0
 277 788 271 789 264 786 c 0
 222 771 188 720 170 647 c 0
 160 604 157 566 157 512 c 0
 157 477 156 463 160 435 c 0
 171 345 202 277 245 248 c 0
 263 236 273 235 286 240 c 0
 311 250 335 275 351 309 c 0
 371 348 384 399 389 464 c 0
 391 481 391 543 389 561 c 0
 384 625 371 676 351 715 c 0
 335 749 311 774 287 784 c 0
EndSplineSet
Validated: 33
EndChar

StartChar: colon
Encoding: 58 58 25
Width: 182
VWidth: 910
Flags: HW
LayerCount: 2
Fore
SplineSet
73 613 m 0
 104 617 139 610 148 599 c 0
 153 594 153 590 148 585 c 0
 136 570 90 565 56 574 c 0
 40 578 30 586 30 593 c 0
 30 597 36 601 42 605 c 0
 49 609 63 612 73 613 c 0
73 44 m 0
 104 48 139 40 148 29 c 0
 153 24 153 20 148 15 c 0
 136 0 90 -4 56 5 c 0
 40 9 30 16 30 22 c 0
 30 27 36 31 42 35 c 0
 49 39 63 43 73 44 c 0
EndSplineSet
Validated: 33
EndChar

StartChar: semicolon
Encoding: 59 59 26
Width: 182
VWidth: 910
Flags: HW
LayerCount: 2
Fore
SplineSet
73 617 m 0
 104 621 139 614 148 603 c 0
 153 598 153 594 148 589 c 0
 136 574 90 569 56 578 c 0
 40 582 30 589 30 596 c 0
 30 600 36 605 42 609 c 0
 49 613 63 616 73 617 c 0
74 36 m 0
 99 40 129 35 139 25 c 2
 142 22 l 1
 142 8 l 2
 140 -29 131 -64 115 -96 c 0
 109 -109 107 -111 100 -114 c 0
 90 -119 82 -120 66 -121 c 0
 44 -121 28 -118 17 -112 c 0
 13 -110 10 -106 10 -103 c 0
 10 -102 12 -96 15 -91 c 0
 30 -59 39 -27 41 9 c 0
 41 21 41 21 44 25 c 0
 49 30 59 33 74 36 c 0
EndSplineSet
Validated: 33
EndChar

StartChar: less
Encoding: 60 60 27
Width: 607
VWidth: 910
Flags: HW
LayerCount: 2
Fore
SplineSet
510 613 m 0
 520 614 535 614 544 613 c 0
 559 610 569 607 574 602 c 0
 578 597 578 595 574 591 c 0
 572 589 479 528 355 447 c 0
 237 371 139 307 140 307 c 2
 140 307 238 243 356 167 c 0
 479 87 571 27 573 25 c 0
 578 20 578 18 574 13 c 0
 561 -1 514 -5 489 6 c 0
 482 9 38 297 34 301 c 0
 29 306 29 308 34 313 c 0
 38 317 482 605 489 608 c 0
 494 610 504 612 510 613 c 0
EndSplineSet
Validated: 33
EndChar

StartChar: equal
Encoding: 61 61 28
Width: 607
VWidth: 910
Flags: HW
LayerCount: 2
Fore
SplineSet
63 428 m 0
 68 429 121 429 303 429 c 0
 551 429 543 429 558 424 c 0
 569 421 577 416 577 411 c 0
 577 406 569 399 558 396 c 0
 543 391 551 391 304 391 c 0
 106 391 70 391 63 392 c 0
 48 395 38 399 33 404 c 0
 29 409 29 411 33 416 c 0
 38 421 48 425 63 428 c 0
63 223 m 0
 68 224 121 224 303 224 c 0
 551 224 543 224 558 219 c 0
 569 216 577 211 577 206 c 0
 577 201 569 194 558 191 c 0
 543 186 551 187 304 187 c 0
 106 187 70 187 63 188 c 0
 48 191 38 194 33 199 c 0
 29 204 29 206 33 211 c 0
 38 216 48 220 63 223 c 0
EndSplineSet
Validated: 33
EndChar

StartChar: greater
Encoding: 62 62 29
Width: 607
VWidth: 910
Flags: HW
LayerCount: 2
Fore
SplineSet
63 613 m 0
 80 616 105 613 119 608 c 0
 125 605 569 317 573 313 c 0
 576 311 577 309 577 308 c 0
 577 306 576 303 573 301 c 0
 569 297 125 9 119 6 c 0
 94 -5 46 -1 33 13 c 0
 29 18 29 20 34 25 c 0
 36 27 128 87 252 167 c 0
 369 243 467 307 467 307 c 2
 468 307 370 371 252 447 c 0
 128 528 35 589 33 591 c 0
 29 595 29 597 33 602 c 0
 38 607 48 610 63 613 c 0
EndSplineSet
Validated: 33
EndChar

StartChar: question
Encoding: 63 63 30
Width: 485
VWidth: 910
Flags: HW
LayerCount: 2
Fore
SplineSet
223 824 m 0
 234 825 268 824 280 822 c 0
 325 816 356 800 384 773 c 0
 399 757 411 740 423 715 c 0
 440 680 450 637 454 591 c 0
 458 535 450 487 426 441 c 0
 400 387 356 344 303 317 c 2
 293 312 l 1
 293 246 l 1
 293 179 l 1
 289 176 l 2
 281 168 264 164 243 164 c 0
 221 164 204 168 196 176 c 2
 192 179 l 1
 192 250 l 1
 192 321 l 1
 196 325 l 2
 199 328 202 330 206 331 c 0
 214 335 232 344 242 350 c 0
 306 392 347 463 353 542 c 0
 356 577 351 627 340 664 c 0
 325 719 298 759 265 778 c 0
 258 783 246 787 242 787 c 0
 239 787 227 783 220 778 c 0
 187 759 160 719 145 664 c 0
 137 636 131 596 131 568 c 0
 131 560 131 560 127 556 c 0
 120 547 94 541 70 544 c 0
 51 546 39 550 34 556 c 0
 30 560 30 560 30 569 c 0
 30 608 39 658 52 693 c 0
 57 705 66 723 73 735 c 0
 88 760 110 783 134 798 c 0
 157 812 188 821 223 824 c 0
227 36 m 0
 236 37 260 37 269 35 c 0
 302 28 302 10 269 3 c 0
 256 0 230 0 217 3 c 0
 202 7 192 12 192 18 c 0
 192 26 205 33 227 36 c 0
EndSplineSet
Validated: 33
EndChar

StartChar: at
Encoding: 64 64 31
Width: 728
VWidth: 910
Flags: HW
LayerCount: 2
Fore
SplineSet
337 728 m 0
 352 729 392 728 408 726 c 0
 476 717 528 692 573 646 c 0
 613 604 643 547 659 481 c 0
 688 363 672 245 615 160 c 0
 592 125 563 98 534 86 c 0
 495 70 441 69 411 86 c 2
 405 90 l 1
 396 88 l 2
 382 85 360 84 345 86 c 0
 248 94 209 149 199 292 c 0
 197 315 197 409 199 432 c 0
 209 575 248 630 345 638 c 0
 369 640 395 638 415 632 c 0
 444 624 466 607 479 582 c 1
 482 578 l 1
 482 356 l 2
 482 209 482 133 483 131 c 2
 484 128 l 1
 492 136 l 2
 543 190 573 273 573 362 c 0
 573 419 562 479 542 530 c 0
 536 545 520 575 512 588 c 0
 481 636 442 670 399 685 c 0
 374 693 355 693 330 685 c 0
 285 670 244 635 212 583 c 0
 206 571 193 545 187 531 c 0
 146 425 146 299 187 194 c 0
 193 179 208 149 216 137 c 0
 242 94 275 63 312 45 c 2
 323 40 l 1
 329 42 l 2
 351 50 388 49 408 39 c 0
 427 30 427 12 408 3 c 0
 395 -3 378 -6 353 -5 c 0
 272 -2 207 24 156 77 c 0
 90 146 52 256 55 373 c 0
 57 443 72 507 99 563 c 0
 149 664 228 719 337 728 c 0
371 588 m 0
 368 591 366 594 363 596 c 2
 360 599 l 1
 354 594 l 2
 332 579 316 541 308 493 c 0
 302 456 299 426 299 362 c 0
 299 298 302 268 308 231 c 0
 316 182 333 144 355 129 c 2
 360 126 l 1
 364 129 l 2
 369 133 375 142 379 148 c 2
 380 152 l 1
 380 362 l 1
 380 573 l 1
 378 578 l 2
 376 581 373 585 371 588 c 0
EndSplineSet
Validated: 33
EndChar

StartChar: A
Encoding: 65 65 32
Width: 576
VWidth: 910
Flags: HW
LayerCount: 2
Fore
SplineSet
225 818 m 0
 236 819 339 819 351 818 c 0
 373 814 382 809 385 797 c 0
 398 731 531 20 531 18 c 0
 531 16 530 15 528 13 c 0
 511 -4 448 -3 433 13 c 0
 430 16 430 17 395 201 c 0
 376 304 360 389 360 390 c 2
 360 391 l 1
 288 391 l 1
 217 391 l 1
 216 390 l 2
 216 389 200 304 181 201 c 0
 146 17 146 16 143 13 c 0
 128 -3 65 -4 48 13 c 0
 46 15 46 16 46 18 c 0
 46 20 178 731 191 797 c 0
 193 808 203 814 225 818 c 0
320 601 m 0
 303 695 289 772 289 772 c 2
 288 773 224 431 224 430 c 0
 224 429 254 429 289 429 c 0
 337 429 352 429 352 430 c 0
 352 431 337 508 320 601 c 0
EndSplineSet
Validated: 33
EndChar

StartChar: B
Encoding: 66 66 33
Width: 546
VWidth: 910
Flags: HW
LayerCount: 2
Fore
SplineSet
79 818 m 0
 87 819 138 818 160 817 c 0
 334 803 448 746 478 658 c 0
 487 629 489 594 481 564 c 0
 467 509 425 462 362 431 c 0
 348 426 323 415 314 412 c 0
 311 412 309 411 309 411 c 1
 319 407 l 2
 385 386 438 349 466 304 c 0
 481 279 490 251 492 221 c 0
 493 182 483 149 461 119 c 0
 448 102 425 81 403 67 c 0
 347 32 264 10 168 3 c 0
 133 0 93 -1 80 1 c 0
 59 4 46 11 46 19 c 0
 46 23 51 28 56 31 c 2
 61 32 l 1
 61 214 l 1
 61 397 l 1
 56 398 l 2
 51 401 46 406 46 410 c 0
 46 415 51 419 56 422 c 2
 61 423 l 1
 61 605 l 1
 61 787 l 1
 56 788 l 2
 51 791 46 796 46 800 c 0
 46 808 58 815 79 818 c 0
178 776 m 2
 164 778 l 2
 162 778 162 758 162 603 c 2
 162 429 l 1
 172 429 l 2
 238 429 307 458 345 502 c 0
 373 534 386 571 385 612 c 0
 382 682 336 733 250 760 c 0
 227 767 204 772 178 776 c 2
194 390 m 0
 188 391 177 391 172 391 c 2
 162 391 l 1
 162 217 l 1
 162 41 l 1
 165 41 l 2
 174 41 213 48 234 53 c 0
 279 65 316 82 342 106 c 0
 377 137 395 182 390 231 c 0
 384 291 345 341 279 369 c 0
 253 381 223 387 194 390 c 0
EndSplineSet
Validated: 33
EndChar

StartChar: C
Encoding: 67 67 34
Width: 546
VWidth: 910
Flags: HW
LayerCount: 2
Fore
SplineSet
248 824 m 0
 261 825 300 824 315 823 c 0
 349 818 376 812 403 801 c 0
 440 786 474 764 499 739 c 0
 508 729 507 727 502 722 c 0
 493 714 477 710 452 710 c 0
 425 711 417 713 402 727 c 0
 366 762 320 784 279 787 c 0
 267 787 261 786 249 780 c 0
 229 770 212 752 198 724 c 0
 166 663 156 579 156 410 c 0
 156 293 160 225 173 168 c 0
 188 102 214 56 249 39 c 0
 261 33 267 32 279 32 c 0
 320 35 366 57 402 92 c 0
 417 106 425 108 452 109 c 0
 477 109 493 105 502 97 c 0
 507 92 508 90 499 80 c 0
 460 40 401 11 338 0 c 0
 272 -11 211 -6 169 16 c 0
 100 51 66 132 57 284 c 0
 53 347 53 472 57 536 c 0
 66 687 100 768 169 803 c 0
 190 814 218 821 248 824 c 0
EndSplineSet
Validated: 33
EndChar

StartChar: D
Encoding: 68 68 35
Width: 530
VWidth: 910
Flags: HW
LayerCount: 2
Fore
SplineSet
78 818 m 0
 83 819 92 819 107 819 c 0
 187 817 265 793 325 749 c 0
 417 682 475 578 489 454 c 0
 491 433 491 386 489 365 c 0
 477 261 434 170 366 104 c 0
 298 39 209 3 110 0 c 0
 83 0 68 2 56 7 c 0
 51 10 46 15 46 19 c 0
 46 22 51 27 56 30 c 2
 61 32 l 1
 61 410 l 1
 61 787 l 1
 56 789 l 2
 51 792 46 797 46 800 c 0
 46 802 46 804 48 806 c 0
 53 811 63 815 78 818 c 0
175 765 m 0
 170 767 165 769 164 769 c 2
 162 770 l 1
 162 410 l 1
 162 49 l 1
 164 50 l 2
 170 51 184 58 195 63 c 0
 281 106 349 195 377 304 c 0
 382 322 385 345 388 367 c 0
 390 388 390 431 388 452 c 0
 378 542 345 620 289 683 c 0
 257 719 215 750 175 765 c 0
EndSplineSet
Validated: 33
EndChar

StartChar: E
Encoding: 69 69 36
Width: 530
VWidth: 910
Flags: HW
LayerCount: 2
Fore
SplineSet
79 818 m 0
 87 819 443 819 451 818 c 0
 466 816 477 811 482 806 c 0
 491 797 478 787 451 783 c 0
 446 782 388 782 303 782 c 2
 162 782 l 1
 162 615 l 1
 162 448 l 1
 288 448 l 2
 421 448 422 448 436 443 c 0
 447 440 455 435 455 430 c 0
 455 425 447 418 436 415 c 0
 422 410 421 411 288 411 c 2
 162 411 l 1
 162 224 l 1
 162 37 l 1
 303 37 l 2
 388 37 446 37 451 36 c 0
 466 34 477 30 482 25 c 0
 491 16 478 5 451 1 c 0
 442 0 89 0 80 1 c 0
 59 4 46 11 46 19 c 0
 46 23 51 28 56 31 c 2
 61 32 l 1
 61 224 l 1
 61 416 l 1
 56 417 l 2
 51 420 46 425 46 429 c 0
 46 434 51 438 56 441 c 2
 61 442 l 1
 61 615 l 1
 61 787 l 1
 56 788 l 2
 51 791 46 796 46 800 c 0
 46 808 59 815 79 818 c 0
EndSplineSet
Validated: 33
EndChar

StartChar: F
Encoding: 70 70 37
Width: 530
VWidth: 910
Flags: HW
LayerCount: 2
Fore
SplineSet
79 818 m 0
 87 819 443 819 451 818 c 0
 466 816 477 811 482 806 c 0
 491 797 478 787 451 783 c 0
 446 782 388 782 303 782 c 2
 162 782 l 1
 162 615 l 1
 162 448 l 1
 288 448 l 2
 421 448 422 448 436 443 c 0
 447 440 455 435 455 430 c 0
 455 425 447 418 436 415 c 0
 422 410 421 411 288 411 c 2
 162 411 l 1
 162 213 l 1
 162 15 l 1
 159 13 l 2
 142 -4 79 -3 64 13 c 2
 61 16 l 1
 61 216 l 1
 61 416 l 1
 56 417 l 2
 51 420 46 425 46 429 c 0
 46 434 51 438 56 441 c 2
 61 442 l 1
 61 615 l 1
 61 787 l 1
 56 788 l 2
 51 791 46 796 46 800 c 0
 46 808 59 815 79 818 c 0
EndSplineSet
Validated: 33
EndChar

StartChar: G
Encoding: 71 71 38
Width: 546
VWidth: 910
Flags: HW
LayerCount: 2
Fore
SplineSet
248 824 m 0
 261 825 298 824 313 823 c 0
 329 820 354 816 369 811 c 0
 412 798 445 778 475 748 c 0
 493 730 494 728 486 721 c 0
 482 717 476 715 466 712 c 0
 458 710 423 710 415 712 c 0
 400 716 400 716 385 731 c 0
 366 750 350 762 330 772 c 0
 306 784 279 790 264 786 c 0
 250 782 233 771 221 758 c 0
 185 717 164 646 158 534 c 0
 154 470 154 349 158 286 c 0
 163 199 175 140 198 96 c 0
 212 68 229 49 249 39 c 0
 261 33 268 32 279 32 c 0
 313 35 351 54 380 84 c 2
 390 94 l 1
 390 242 l 1
 390 391 l 1
 323 391 l 2
 257 392 255 392 248 394 c 0
 215 401 215 418 248 426 c 0
 255 428 257 428 360 429 c 0
 426 429 466 429 471 428 c 0
 492 425 506 418 506 411 c 0
 506 406 502 403 497 399 c 2
 492 397 l 1
 492 242 l 1
 492 88 l 1
 484 81 l 2
 459 53 427 31 392 16 c 0
 319 -13 226 -13 169 16 c 0
 100 51 66 132 57 284 c 0
 53 347 53 472 57 536 c 0
 66 687 100 768 169 803 c 0
 190 814 218 821 248 824 c 0
EndSplineSet
Validated: 33
EndChar

StartChar: H
Encoding: 72 72 39
Width: 546
VWidth: 910
Flags: HW
LayerCount: 2
Fore
SplineSet
94 818 m 0
 119 822 149 816 159 806 c 2
 162 804 l 1
 162 625 l 1
 162 448 l 1
 274 448 l 1
 385 448 l 1
 385 625 l 1
 385 803 l 1
 388 806 l 2
 403 822 466 823 483 806 c 2
 486 804 l 1
 486 624 l 1
 486 442 l 1
 492 441 l 2
 497 437 501 434 501 429 c 0
 501 425 497 422 492 418 c 2
 486 416 l 1
 486 216 l 1
 486 15 l 1
 483 13 l 2
 466 -4 403 -3 388 13 c 2
 385 16 l 1
 385 214 l 1
 385 411 l 1
 274 411 l 1
 162 411 l 1
 162 213 l 1
 162 15 l 1
 159 13 l 2
 142 -4 79 -3 64 13 c 2
 61 16 l 1
 61 216 l 1
 61 416 l 1
 56 417 l 2
 51 420 46 425 46 430 c 0
 46 434 51 438 56 441 c 2
 61 442 l 1
 61 623 l 1
 61 803 l 1
 64 806 l 2
 69 811 79 815 94 818 c 0
EndSplineSet
Validated: 33
EndChar

StartChar: I
Encoding: 73 73 40
Width: 334
VWidth: 910
Flags: HW
LayerCount: 2
Fore
SplineSet
134 818 m 0
 144 819 189 819 200 818 c 0
 215 815 224 811 229 806 c 0
 234 801 232 794 222 789 c 2
 218 787 l 1
 218 410 l 1
 218 32 l 1
 222 30 l 2
 236 24 236 14 223 8 c 0
 211 2 198 0 167 0 c 0
 135 0 123 2 111 8 c 0
 98 14 98 24 112 30 c 2
 117 32 l 1
 117 410 l 1
 117 787 l 1
 112 789 l 2
 109 790 107 793 105 795 c 0
 96 804 108 813 134 818 c 0
EndSplineSet
Validated: 33
EndChar

StartChar: J
Encoding: 74 74 41
Width: 455
VWidth: 910
Flags: HW
LayerCount: 2
Fore
SplineSet
312 818 m 0
 320 819 367 819 375 818 c 0
 396 815 410 808 410 801 c 0
 410 796 405 793 400 789 c 2
 395 787 l 1
 395 451 l 1
 395 116 l 1
 391 105 l 2
 386 84 376 68 360 52 c 0
 334 26 296 9 248 2 c 0
 233 0 196 0 181 2 c 0
 132 7 92 25 66 51 c 0
 56 61 51 66 45 77 c 0
 37 91 31 109 30 125 c 2
 30 135 l 1
 34 138 l 2
 38 142 45 145 56 148 c 0
 67 150 94 150 105 148 c 0
 116 145 123 142 127 138 c 0
 131 134 131 135 131 126 c 0
 134 91 154 62 187 46 c 0
 194 41 207 37 212 37 c 0
 217 37 231 41 238 46 c 0
 264 59 283 80 291 108 c 2
 294 117 l 1
 294 452 l 1
 294 787 l 1
 289 788 l 2
 284 791 279 796 279 800 c 0
 279 808 292 815 312 818 c 0
EndSplineSet
Validated: 33
EndChar

StartChar: K
Encoding: 75 75 42
Width: 530
VWidth: 910
Flags: HW
LayerCount: 2
Fore
SplineSet
94 818 m 0
 119 822 149 816 159 806 c 2
 162 804 l 1
 162 670 l 1
 163 536 l 1
 274 671 l 2
 336 745 387 806 389 807 c 0
 405 823 466 822 482 806 c 0
 487 801 487 800 474 784 c 0
 468 777 398 693 319 597 c 0
 240 501 175 423 175 422 c 2
 175 422 176 422 177 423 c 0
 181 425 195 428 207 429 c 0
 230 430 252 424 259 417 c 0
 260 416 311 326 373 218 c 0
 451 81 485 20 485 18 c 0
 485 14 480 10 474 7 c 0
 449 -5 400 -1 387 13 c 0
 386 15 335 104 274 211 c 2
 163 407 l 1
 162 211 l 1
 162 15 l 1
 159 13 l 2
 142 -4 79 -3 64 13 c 2
 61 16 l 1
 61 410 l 1
 61 803 l 1
 64 806 l 2
 69 811 79 815 94 818 c 0
EndSplineSet
Validated: 33
EndChar

StartChar: L
Encoding: 76 76 43
Width: 516
VWidth: 910
Flags: HW
LayerCount: 2
Fore
SplineSet
94 818 m 0
 119 822 149 816 159 806 c 2
 162 804 l 1
 162 421 l 1
 162 37 l 1
 303 37 l 2
 452 37 453 38 467 33 c 0
 478 30 486 23 486 18 c 0
 486 13 478 8 467 5 c 0
 453 0 455 0 266 0 c 0
 157 0 85 0 80 1 c 0
 59 4 46 11 46 19 c 0
 46 23 51 28 56 31 c 2
 61 32 l 1
 61 418 l 1
 61 803 l 1
 64 806 l 2
 69 811 79 815 94 818 c 0
EndSplineSet
Validated: 33
EndChar

StartChar: M
Encoding: 77 77 44
Width: 789
VWidth: 910
Flags: HW
LayerCount: 2
Fore
SplineSet
94 818 m 0
 103 819 127 819 136 817 c 0
 150 813 158 809 161 804 c 0
 162 802 215 670 279 511 c 0
 343 351 395 220 395 220 c 1
 395 220 447 351 512 512 c 0
 639 828 630 807 639 812 c 0
 663 824 711 821 726 806 c 2
 729 804 l 1
 729 410 l 1
 729 15 l 1
 726 13 l 2
 709 -4 646 -3 631 13 c 2
 628 16 l 1
 628 281 l 1
 628 546 l 1
 536 316 l 1
 444 86 l 1
 440 82 l 2
 431 77 414 73 395 73 c 0
 376 73 359 77 350 82 c 2
 347 86 l 1
 254 316 l 1
 162 546 l 1
 162 280 l 1
 162 15 l 1
 159 13 l 2
 142 -4 79 -3 64 13 c 2
 61 16 l 1
 61 410 l 1
 61 803 l 1
 64 806 l 2
 69 811 79 815 94 818 c 0
EndSplineSet
Validated: 33
EndChar

StartChar: N
Encoding: 78 78 45
Width: 546
VWidth: 910
Flags: HW
LayerCount: 2
Fore
SplineSet
94 818 m 0
 103 819 127 819 136 817 c 0
 149 814 157 811 160 806 c 0
 161 804 212 681 273 534 c 2
 385 265 l 1
 385 534 l 1
 386 804 l 1
 389 806 l 2
 404 822 466 823 483 806 c 2
 486 804 l 1
 486 410 l 1
 486 15 l 1
 483 13 l 2
 466 -4 403 -3 388 13 c 0
 386 16 353 94 274 285 c 2
 163 554 l 1
 162 285 l 1
 162 15 l 1
 159 13 l 2
 142 -4 79 -3 64 13 c 2
 61 16 l 1
 61 410 l 1
 61 803 l 1
 64 806 l 2
 69 811 79 815 94 818 c 0
EndSplineSet
Validated: 33
EndChar

StartChar: O
Encoding: 79 79 46
Width: 698
VWidth: 910
Flags: HW
LayerCount: 2
Fore
SplineSet
327 824 m 0
 337 825 378 824 390 823 c 0
 486 811 554 763 601 672 c 0
 650 578 670 439 651 312 c 0
 636 206 597 121 541 66 c 0
 501 27 452 4 389 -4 c 0
 371 -6 327 -6 309 -4 c 0
 212 8 145 56 97 147 c 0
 48 241 28 380 47 507 c 0
 62 613 101 699 157 754 c 0
 201 797 254 819 327 824 c 0
372 785 m 0
 362 787 345 788 336 786 c 0
 314 782 290 772 268 755 c 0
 223 720 186 658 165 583 c 0
 124 441 138 267 198 153 c 0
 231 90 275 49 326 35 c 0
 333 33 336 33 350 33 c 0
 363 33 365 33 372 35 c 0
 443 55 503 130 533 237 c 0
 571 368 562 527 512 643 c 0
 479 719 428 770 372 785 c 0
EndSplineSet
Validated: 33
EndChar

StartChar: P
Encoding: 80 80 47
Width: 530
VWidth: 910
Flags: HW
LayerCount: 2
Fore
SplineSet
79 818 m 0
 87 819 117 819 138 818 c 0
 315 809 434 759 475 675 c 0
 481 662 484 653 488 637 c 0
 490 627 490 624 490 605 c 0
 490 586 490 583 488 573 c 0
 484 557 481 548 475 536 c 0
 449 481 391 442 303 417 c 0
 267 407 219 398 177 395 c 2
 162 394 l 1
 162 205 l 1
 162 15 l 1
 159 13 l 2
 142 -4 79 -3 64 13 c 2
 61 16 l 1
 61 207 l 1
 61 397 l 1
 56 398 l 2
 51 401 46 406 46 410 c 0
 46 415 51 419 56 422 c 2
 61 423 l 1
 61 605 l 1
 61 787 l 1
 56 788 l 2
 51 791 46 796 46 800 c 0
 46 808 59 815 79 818 c 0
184 776 m 0
 175 778 167 778 165 778 c 2
 162 778 l 1
 162 605 l 1
 162 432 l 1
 165 432 l 2
 177 432 223 442 245 448 c 0
 310 466 353 498 374 541 c 0
 381 554 384 562 387 577 c 0
 390 592 390 619 387 634 c 0
 384 649 381 657 374 671 c 0
 359 701 333 725 296 744 c 0
 264 759 229 770 184 776 c 0
EndSplineSet
Validated: 33
EndChar

StartChar: Q
Encoding: 81 81 48
Width: 698
VWidth: 910
Flags: HW
LayerCount: 2
Fore
SplineSet
327 824 m 0
 337 825 378 824 390 823 c 0
 486 811 554 763 601 672 c 0
 655 571 672 416 646 282 c 0
 634 220 616 172 589 126 c 0
 584 120 582 113 582 113 c 2
 583 112 594 92 609 67 c 0
 639 18 638 20 637 17 c 0
 634 6 610 -1 582 0 c 0
 562 1 545 7 540 13 c 0
 539 14 533 22 528 31 c 2
 519 46 l 1
 512 42 l 2
 479 18 438 2 389 -4 c 0
 371 -6 327 -6 309 -4 c 0
 212 8 145 56 97 147 c 0
 48 241 28 380 47 507 c 0
 62 613 101 699 157 754 c 0
 201 797 254 819 327 824 c 0
372 785 m 0
 366 786 360 786 352 787 c 0
 339 787 334 787 323 784 c 0
 286 773 248 745 219 703 c 0
 179 647 153 566 145 475 c 0
 133 358 153 238 198 153 c 0
 231 90 275 49 326 35 c 0
 333 33 336 33 350 33 c 0
 363 33 365 33 372 35 c 0
 400 43 426 58 450 82 c 0
 459 91 475 110 477 114 c 2
 477 114 466 132 453 153 c 0
 437 179 430 193 430 195 c 0
 430 200 437 205 449 209 c 0
 469 214 505 214 520 207 c 0
 522 206 522 205 523 205 c 0
 526 207 539 252 544 279 c 0
 569 404 557 540 512 643 c 0
 479 719 428 770 372 785 c 0
EndSplineSet
Validated: 33
EndChar

StartChar: R
Encoding: 82 82 49
Width: 546
VWidth: 910
Flags: HW
LayerCount: 2
Fore
SplineSet
79 818 m 0
 83 819 100 819 116 818 c 0
 256 817 371 788 438 737 c 0
 451 728 470 709 477 698 c 0
 496 671 506 640 506 605 c 0
 506 570 496 539 477 512 c 0
 470 501 451 482 438 473 c 0
 400 444 346 423 281 409 c 0
 273 407 267 406 267 406 c 1
 267 406 321 319 387 213 c 0
 468 83 506 20 506 18 c 0
 506 13 497 7 484 4 c 0
 457 -3 420 1 409 13 c 0
 407 14 354 100 289 204 c 0
 224 308 171 393 170 393 c 1
 170 394 168 394 166 393 c 2
 162 393 l 1
 162 204 l 1
 162 15 l 1
 159 13 l 2
 142 -4 79 -3 64 13 c 2
 61 16 l 1
 61 207 l 1
 61 397 l 1
 56 398 l 2
 51 401 46 406 46 410 c 0
 46 415 51 419 56 422 c 2
 61 423 l 1
 61 605 l 1
 61 787 l 1
 56 788 l 2
 51 791 46 796 46 800 c 0
 46 808 58 815 79 818 c 0
180 777 m 0
 171 778 164 779 163 779 c 0
 162 779 162 743 162 605 c 0
 162 467 162 431 163 431 c 0
 167 431 198 435 210 438 c 0
 301 453 365 488 390 539 c 0
 401 561 404 579 404 605 c 0
 404 631 401 650 390 672 c 0
 362 728 289 764 180 777 c 0
EndSplineSet
Validated: 33
EndChar

StartChar: S
Encoding: 83 83 50
Width: 546
VWidth: 910
Flags: HW
LayerCount: 2
Fore
SplineSet
254 824 m 0
 262 825 288 825 299 824 c 0
 354 819 399 805 433 781 c 0
 448 770 464 753 473 737 c 0
 479 726 485 709 486 694 c 2
 486 684 l 1
 482 681 l 2
 474 673 458 669 436 669 c 0
 413 669 397 673 390 680 c 2
 385 684 l 1
 385 693 l 2
 383 709 379 723 370 737 c 0
 352 765 312 786 277 786 c 0
 265 787 259 785 245 778 c 0
 233 772 223 765 212 755 c 0
 195 737 181 716 171 690 c 0
 157 655 152 612 158 582 c 0
 161 569 164 561 170 548 c 0
 178 530 191 514 208 497 c 0
 232 473 257 454 312 421 c 0
 371 386 397 368 425 340 c 0
 447 318 459 301 470 279 c 0
 477 265 480 254 483 239 c 0
 486 224 486 194 483 176 c 0
 473 110 439 56 390 25 c 0
 366 10 343 1 308 -4 c 0
 292 -6 250 -6 230 -3 c 0
 186 2 152 15 124 32 c 0
 86 56 64 89 61 126 c 2
 61 135 l 1
 65 138 l 2
 73 146 89 150 112 150 c 0
 134 150 150 146 157 139 c 2
 162 136 l 1
 162 127 l 2
 164 111 168 96 177 82 c 0
 194 55 232 35 268 32 c 0
 276 32 283 33 295 38 c 0
 340 60 374 115 383 180 c 0
 385 196 385 223 383 236 c 0
 377 269 359 298 330 327 c 0
 305 352 281 369 224 403 c 0
 167 438 139 457 113 484 c 0
 92 505 81 520 70 542 c 0
 60 562 56 580 55 603 c 0
 53 654 69 705 99 746 c 0
 107 757 126 775 136 783 c 0
 168 807 205 820 254 824 c 0
EndSplineSet
Validated: 33
EndChar

StartChar: T
Encoding: 84 84 51
Width: 516
VWidth: 910
Flags: HW
LayerCount: 2
Fore
SplineSet
79 818 m 0
 87 819 428 819 436 818 c 0
 463 814 477 804 468 795 c 0
 463 790 451 785 436 783 c 0
 432 782 403 782 369 782 c 2
 309 782 l 1
 309 399 l 1
 309 15 l 1
 306 13 l 2
 289 -4 225 -3 210 13 c 2
 208 16 l 1
 208 400 l 1
 208 782 l 1
 147 782 l 2
 113 782 84 782 80 783 c 0
 59 786 46 793 46 801 c 0
 46 808 60 815 79 818 c 0
EndSplineSet
Validated: 33
EndChar

StartChar: U
Encoding: 85 85 52
Width: 546
VWidth: 910
Flags: HW
LayerCount: 2
Fore
SplineSet
94 818 m 0
 119 822 149 816 159 806 c 2
 162 804 l 1
 162 474 l 1
 163 145 l 1
 165 136 l 2
 174 94 200 60 238 42 c 0
 252 35 261 33 274 33 c 0
 286 33 294 35 309 42 c 0
 346 60 373 94 382 136 c 2
 384 145 l 1
 385 474 l 1
 386 804 l 1
 389 806 l 2
 404 822 466 823 483 806 c 2
 486 804 l 1
 486 473 l 1
 485 143 l 1
 483 134 l 2
 476 103 463 79 441 56 c 0
 425 41 409 28 388 18 c 0
 313 -17 208 -13 142 27 c 0
 122 39 101 59 89 76 c 0
 77 93 69 112 64 134 c 2
 62 143 l 1
 61 472 l 1
 61 803 l 1
 64 806 l 2
 69 811 79 815 94 818 c 0
EndSplineSet
Validated: 33
EndChar

StartChar: V
Encoding: 86 86 53
Width: 576
VWidth: 910
Flags: HW
LayerCount: 2
Fore
SplineSet
79 818 m 0
 89 819 105 819 114 818 c 0
 129 815 138 811 143 806 c 0
 146 803 147 801 216 431 c 0
 254 226 286 56 287 53 c 2
 289 46 l 1
 360 425 l 2
 429 796 430 803 432 806 c 0
 445 820 495 824 520 812 c 0
 526 809 531 805 531 801 c 0
 531 799 398 88 385 22 c 0
 382 10 373 5 351 1 c 0
 338 -1 238 -1 225 1 c 0
 203 5 194 10 191 22 c 0
 178 88 46 799 46 801 c 0
 46 808 61 815 79 818 c 0
EndSplineSet
Validated: 33
EndChar

StartChar: W
Encoding: 87 87 54
Width: 819
VWidth: 910
Flags: HW
LayerCount: 2
Fore
SplineSet
79 818 m 0
 89 819 105 819 114 818 c 0
 129 815 138 811 143 806 c 2
 146 804 l 1
 167 679 l 2
 178 611 201 462 220 347 c 0
 238 233 254 139 254 139 c 1
 254 139 278 268 307 425 c 0
 348 651 359 712 361 714 c 0
 366 723 385 727 410 727 c 0
 435 727 453 723 458 714 c 0
 460 712 471 651 512 425 c 0
 541 268 565 139 565 139 c 1
 565 139 581 233 599 347 c 0
 618 462 642 611 653 679 c 2
 674 804 l 1
 676 806 l 2
 691 822 754 823 771 806 c 0
 773 804 774 803 774 801 c 0
 774 796 647 17 646 15 c 0
 644 12 638 8 631 5 c 0
 618 1 615 1 566 1 c 0
 525 1 519 1 512 2 c 0
 497 6 489 10 487 15 c 0
 486 17 469 111 448 225 c 0
 427 338 410 431 410 431 c 1
 410 431 392 338 371 225 c 0
 350 111 333 17 332 15 c 0
 330 10 322 6 307 2 c 0
 300 1 294 1 253 1 c 0
 204 1 201 1 188 5 c 0
 181 8 175 12 173 15 c 0
 172 17 46 796 46 801 c 0
 46 808 60 815 79 818 c 0
EndSplineSet
Validated: 33
EndChar

StartChar: X
Encoding: 88 88 55
Width: 546
VWidth: 910
Flags: HW
LayerCount: 2
Fore
SplineSet
96 818 m 0
 103 819 128 818 136 816 c 0
 149 813 156 810 159 805 c 0
 161 804 187 744 217 672 c 0
 248 600 273 542 273 542 c 1
 273 542 291 583 313 635 c 0
 336 687 361 746 370 767 c 0
 379 787 387 805 388 807 c 0
 393 812 411 818 430 819 c 0
 458 820 482 813 485 802 c 0
 486 801 460 739 405 611 c 0
 361 506 325 421 325 421 c 2
 325 420 363 330 410 221 c 0
 461 101 494 22 494 19 c 0
 494 16 494 16 492 13 c 0
 488 9 480 5 470 3 c 0
 458 0 433 0 421 2 c 0
 407 6 399 10 396 15 c 0
 394 16 367 80 334 157 c 0
 300 234 273 299 273 299 c 1
 273 299 246 234 212 157 c 0
 179 80 152 16 150 15 c 0
 147 10 140 6 126 2 c 0
 114 0 88 0 76 3 c 0
 66 5 58 9 54 13 c 0
 52 16 52 16 52 19 c 0
 52 22 86 101 137 221 c 0
 184 330 221 420 221 421 c 2
 221 421 186 506 141 610 c 0
 91 727 61 799 61 801 c 0
 61 808 75 815 96 818 c 0
EndSplineSet
Validated: 33
EndChar

StartChar: Y
Encoding: 89 89 56
Width: 546
VWidth: 910
Flags: HW
LayerCount: 2
Fore
SplineSet
96 818 m 0
 103 819 128 818 136 816 c 0
 149 813 156 810 159 805 c 0
 161 804 187 744 218 674 c 0
 248 604 273 547 273 547 c 1
 273 547 292 589 314 640 c 0
 395 827 386 807 396 812 c 0
 416 822 457 821 476 812 c 0
 481 809 484 806 485 802 c 0
 486 801 461 741 405 614 c 2
 324 428 l 1
 324 222 l 1
 324 15 l 1
 321 13 l 2
 304 -4 241 -3 226 13 c 2
 223 16 l 1
 223 221 l 1
 223 426 l 1
 142 611 l 2
 92 726 61 797 61 800 c 0
 61 803 61 803 63 806 c 0
 68 811 81 816 96 818 c 0
EndSplineSet
Validated: 33
EndChar

StartChar: Z
Encoding: 90 90 57
Width: 516
VWidth: 910
Flags: HW
LayerCount: 2
Fore
SplineSet
79 818 m 0
 87 819 428 819 436 818 c 0
 456 815 471 808 471 801 c 0
 471 800 399 627 313 418 c 2
 155 38 l 1
 297 37 l 2
 449 36 440 37 455 32 c 0
 460 30 467 27 469 23 c 0
 475 14 461 5 436 1 c 0
 427 0 89 0 80 1 c 0
 60 4 46 11 46 18 c 0
 46 19 117 192 203 401 c 2
 361 782 l 1
 219 782 l 2
 67 783 76 782 61 787 c 0
 56 789 49 792 47 796 c 0
 41 805 55 814 79 818 c 0
EndSplineSet
Validated: 33
EndChar

StartChar: bracketleft
Encoding: 91 91 58
Width: 243
VWidth: 910
Flags: HW
LayerCount: 2
Fore
SplineSet
63 848 m 0
 74 849 168 849 180 848 c 0
 195 845 205 841 210 836 c 0
 214 831 214 830 210 825 c 0
 202 816 185 812 151 812 c 2
 131 812 l 1
 131 410 l 1
 131 7 l 1
 151 7 l 2
 185 7 202 4 210 -5 c 0
 214 -10 214 -12 210 -17 c 0
 205 -22 195 -26 180 -29 c 0
 167 -31 76 -31 63 -29 c 0
 48 -26 38 -22 33 -17 c 2
 30 -14 l 1
 30 410 l 1
 30 833 l 1
 33 836 l 2
 38 841 48 845 63 848 c 0
EndSplineSet
Validated: 33
EndChar

StartChar: backslash
Encoding: 92 92 59
Width: 425
VWidth: 910
Flags: HW
LayerCount: 2
Fore
SplineSet
63 818 m 0
 88 822 121 815 128 806 c 0
 131 803 395 22 395 18 c 0
 395 13 386 8 376 5 c 0
 349 -3 306 1 297 13 c 0
 294 16 30 797 30 801 c 0
 30 804 35 809 40 811 c 0
 45 815 54 816 63 818 c 0
EndSplineSet
Validated: 33
EndChar

StartChar: bracketright
Encoding: 93 93 60
Width: 243
VWidth: 910
Flags: HW
LayerCount: 2
Fore
SplineSet
63 848 m 0
 71 849 168 849 178 848 c 0
 193 846 205 841 210 836 c 2
 213 834 l 1
 213 410 l 1
 213 -15 l 1
 210 -17 l 2
 205 -22 193 -27 178 -29 c 0
 174 -30 149 -30 122 -30 c 0
 69 -30 61 -29 49 -25 c 0
 38 -22 30 -16 30 -11 c 0
 30 -8 35 -3 40 -1 c 0
 51 5 65 7 92 7 c 2
 112 7 l 1
 112 410 l 1
 112 812 l 1
 92 812 l 2
 58 812 41 816 33 825 c 0
 29 830 29 831 33 836 c 0
 38 841 48 845 63 848 c 0
EndSplineSet
Validated: 33
EndChar

StartChar: asciicircum
Encoding: 94 94 61
Width: 303
VWidth: 910
Flags: HW
LayerCount: 2
Fore
SplineSet
134 818 m 0
 143 819 167 819 176 817 c 0
 184 815 191 813 195 810 c 0
 200 806 270 734 272 731 c 0
 273 728 273 729 271 725 c 0
 266 716 247 710 222 710 c 0
 207 710 197 711 187 715 c 0
 181 717 180 718 166 732 c 2
 151 745 l 1
 137 732 l 2
 123 718 123 717 117 715 c 0
 107 711 96 710 81 710 c 0
 56 710 37 716 32 725 c 0
 30 729 30 728 31 731 c 0
 32 733 49 751 69 772 c 0
 96 798 108 810 111 811 c 0
 116 814 124 816 134 818 c 0
EndSplineSet
Validated: 33
EndChar

StartChar: underscore
Encoding: 95 95 62
Width: 546
VWidth: 910
Flags: HW
LayerCount: 2
Fore
SplineSet
33 -1 m 0
 42 0 501 1 512 -1 c 0
 539 -5 552 -16 543 -25 c 0
 538 -30 527 -34 512 -36 c 0
 507 -37 416 -37 273 -37 c 0
 75 -37 40 -37 33 -36 c 0
 18 -33 8 -30 3 -25 c 0
 -1 -20 -1 -18 3 -13 c 0
 8 -8 18 -4 33 -1 c 0
EndSplineSet
Validated: 33
EndChar

StartChar: a
Encoding: 97 97 63
Width: 516
VWidth: 910
Flags: HW
LayerCount: 2
Fore
SplineSet
234 619 m 0
 246 620 282 619 295 618 c 0
 315 615 329 611 347 606 c 2
 359 603 l 1
 361 604 l 2
 382 619 438 617 453 602 c 2
 456 599 l 1
 456 308 l 1
 456 15 l 1
 453 13 l 2
 438 -2 382 -5 361 10 c 2
 359 12 l 1
 347 8 l 2
 321 0 297 -4 267 -5 c 0
 216 -6 173 4 142 27 c 0
 100 58 74 115 62 200 c 0
 51 276 52 376 66 443 c 0
 89 558 139 610 234 619 c 0
275 580 m 0
 264 583 256 583 250 581 c 0
 219 568 192 533 177 481 c 0
 148 387 148 228 177 134 c 0
 192 86 216 51 244 36 c 0
 253 31 257 31 265 33 c 0
 294 38 327 58 350 87 c 2
 355 94 l 1
 355 308 l 1
 355 521 l 1
 350 528 l 2
 330 553 301 573 275 580 c 0
EndSplineSet
Validated: 33
EndChar

StartChar: b
Encoding: 98 98 64
Width: 516
VWidth: 910
Flags: HW
LayerCount: 2
Fore
SplineSet
94 818 m 0
 119 822 149 816 159 806 c 2
 162 804 l 1
 162 713 l 1
 162 622 l 1
 174 626 l 2
 231 645 303 643 350 621 c 0
 382 606 405 581 423 543 c 0
 443 503 455 450 460 375 c 0
 462 351 462 294 461 269 c 0
 455 124 417 41 344 10 c 0
 299 -9 233 -11 177 5 c 0
 172 7 165 10 163 10 c 0
 159 12 160 12 155 9 c 0
 133 -5 78 -2 64 13 c 2
 61 16 l 1
 61 410 l 1
 61 803 l 1
 64 806 l 2
 69 811 79 815 94 818 c 0
268 599 m 0
 260 602 256 603 248 600 c 0
 217 592 186 567 167 534 c 2
 163 525 l 1
 162 309 l 1
 162 93 l 1
 167 86 l 2
 190 57 223 37 251 33 c 0
 258 32 260 32 265 34 c 0
 308 49 340 111 353 202 c 0
 366 290 361 409 343 482 c 0
 328 543 301 586 268 599 c 0
EndSplineSet
Validated: 33
EndChar

StartChar: c
Encoding: 99 99 65
Width: 516
VWidth: 910
Flags: HW
LayerCount: 2
Fore
SplineSet
234 613 m 0
 288 618 344 607 384 583 c 0
 413 566 439 539 453 512 c 0
 456 506 456 505 455 502 c 0
 452 496 444 492 429 488 c 0
 423 487 417 487 405 487 c 0
 386 487 376 488 366 493 c 0
 360 496 356 500 352 506 c 0
 346 520 331 538 319 549 c 0
 301 564 277 575 261 577 c 0
 255 577 247 574 236 567 c 0
 198 542 170 478 160 391 c 0
 156 363 157 345 157 308 c 0
 157 270 156 251 160 223 c 0
 170 136 198 72 236 47 c 0
 247 40 255 37 261 37 c 0
 277 39 301 51 319 66 c 0
 331 77 346 94 352 108 c 0
 356 114 360 118 366 121 c 0
 376 126 386 127 405 127 c 0
 417 127 423 128 429 127 c 0
 444 123 452 118 455 112 c 0
 456 109 456 109 453 103 c 0
 448 94 438 79 431 70 c 0
 398 33 354 11 297 3 c 0
 278 0 240 0 224 2 c 0
 179 8 151 21 126 46 c 0
 114 59 106 70 97 85 c 0
 75 125 61 180 56 252 c 0
 54 273 54 341 56 362 c 0
 62 446 80 506 109 548 c 0
 121 565 141 583 159 593 c 0
 178 604 207 610 234 613 c 0
EndSplineSet
Validated: 33
EndChar

StartChar: d
Encoding: 100 100 66
Width: 516
VWidth: 910
Flags: HW
LayerCount: 2
Fore
SplineSet
388 818 m 0
 413 822 443 816 453 806 c 2
 456 804 l 1
 456 410 l 1
 456 15 l 1
 453 13 l 2
 438 -2 382 -5 361 10 c 2
 359 12 l 1
 347 8 l 2
 321 0 297 -4 267 -5 c 0
 214 -7 168 5 138 30 c 0
 80 76 53 176 55 326 c 0
 56 372 58 400 63 434 c 0
 77 534 111 596 167 621 c 0
 217 645 295 645 353 622 c 0
 355 622 355 626 355 712 c 2
 355 803 l 1
 358 806 l 2
 363 811 373 815 388 818 c 0
273 599 m 0
 263 603 256 603 248 599 c 0
 215 585 188 543 173 482 c 0
 152 398 149 259 168 170 c 0
 183 96 214 47 251 34 c 0
 256 32 258 32 265 33 c 0
 294 37 326 57 350 87 c 2
 355 94 l 1
 355 308 l 1
 355 522 l 1
 350 529 l 1
 334 563 306 588 273 599 c 0
EndSplineSet
Validated: 33
EndChar

StartChar: e
Encoding: 101 101 67
Width: 500
VWidth: 910
Flags: HW
LayerCount: 2
Fore
SplineSet
227 619 m 0
 248 621 285 619 306 614 c 0
 343 605 376 584 398 555 c 0
 433 508 452 432 455 328 c 2
 455 304 l 1
 452 301 l 2
 446 296 436 291 421 289 c 0
 416 288 361 289 285 289 c 2
 156 289 l 1
 156 286 l 2
 156 285 156 275 157 264 c 0
 159 225 162 190 168 162 c 0
 181 96 208 50 242 35 c 0
 249 32 253 31 263 34 c 0
 288 39 315 54 338 75 c 0
 341 78 345 84 350 89 c 0
 359 100 364 103 377 106 c 0
 388 109 414 110 426 108 c 0
 443 104 455 98 455 91 c 0
 455 87 450 80 438 67 c 0
 400 28 351 4 289 -4 c 0
 274 -6 232 -6 219 -4 c 0
 153 4 116 31 90 87 c 0
 66 136 55 210 55 308 c 0
 55 460 83 553 142 592 c 0
 165 607 192 615 227 619 c 0
262 578 m 0
 253 583 249 584 243 581 c 0
 229 576 215 561 204 546 c 0
 185 519 170 475 163 421 c 0
 159 396 156 350 156 329 c 2
 156 326 l 1
 255 326 l 1
 354 326 l 1
 354 337 l 2
 351 376 350 399 345 425 c 0
 331 504 302 559 262 578 c 0
EndSplineSet
Validated: 33
EndChar

StartChar: f
Encoding: 102 102 68
Width: 379
VWidth: 910
Flags: HW
LayerCount: 2
Fore
SplineSet
195 824 m 0
 201 825 237 824 246 823 c 0
 266 819 284 814 299 807 c 0
 337 789 361 759 364 724 c 2
 364 715 l 1
 361 713 l 2
 346 695 281 695 266 712 c 0
 264 715 263 717 263 723 c 0
 261 743 252 761 237 774 c 0
 230 780 217 786 212 786 c 0
 208 786 195 780 188 774 c 0
 177 765 169 751 164 736 c 0
 163 731 163 723 162 589 c 2
 162 448 l 1
 228 448 l 2
 264 448 295 448 299 447 c 0
 326 443 340 432 331 423 c 0
 326 418 314 413 299 411 c 0
 295 410 264 411 228 411 c 2
 162 411 l 1
 162 221 l 1
 162 32 l 1
 167 30 l 2
 172 26 177 23 177 19 c 0
 177 11 163 4 142 1 c 0
 133 0 89 0 80 1 c 0
 59 4 46 11 46 19 c 0
 46 23 51 28 56 31 c 2
 61 32 l 1
 61 224 l 1
 61 416 l 1
 56 417 l 2
 51 420 46 425 46 429 c 0
 46 434 51 439 56 441 c 2
 61 442 l 1
 61 587 l 1
 62 733 l 1
 64 740 l 2
 77 785 121 816 183 823 c 0
 188 824 193 824 195 824 c 0
EndSplineSet
Validated: 33
EndChar

StartChar: g
Encoding: 103 103 69
Width: 516
VWidth: 910
Flags: HW
LayerCount: 2
Fore
SplineSet
234 619 m 0
 246 620 282 619 295 618 c 0
 315 615 329 611 347 606 c 2
 359 603 l 1
 361 604 l 2
 382 619 438 617 453 602 c 2
 456 599 l 1
 456 247 l 1
 455 -106 l 1
 453 -113 l 2
 443 -148 417 -173 373 -190 c 0
 323 -210 254 -216 198 -205 c 0
 143 -193 99 -167 67 -126 c 0
 62 -119 61 -117 61 -114 c 0
 61 -111 62 -110 65 -106 c 0
 70 -102 76 -100 86 -97 c 0
 91 -96 96 -96 112 -96 c 0
 129 -96 132 -96 138 -98 c 0
 153 -102 154 -104 169 -121 c 0
 188 -145 215 -163 242 -170 c 0
 251 -173 267 -173 279 -171 c 0
 303 -166 326 -152 339 -137 c 0
 342 -133 345 -128 347 -123 c 0
 355 -108 354 -111 355 -46 c 0
 355 10 355 11 353 10 c 0
 344 6 317 0 302 -2 c 0
 238 -12 180 -1 142 27 c 0
 100 58 74 115 62 200 c 0
 51 276 52 376 66 443 c 0
 89 558 139 610 234 619 c 0
275 580 m 0
 264 583 256 583 250 581 c 0
 206 564 175 502 163 412 c 0
 149 318 155 205 177 134 c 0
 192 86 216 51 244 36 c 0
 253 31 257 31 265 33 c 0
 294 38 327 58 350 87 c 2
 355 94 l 1
 355 308 l 1
 355 521 l 1
 350 528 l 2
 330 553 301 573 275 580 c 0
EndSplineSet
Validated: 33
EndChar

StartChar: h
Encoding: 104 104 70
Width: 516
VWidth: 910
Flags: HW
LayerCount: 2
Fore
SplineSet
94 818 m 0
 119 822 149 816 159 806 c 2
 162 804 l 1
 162 703 l 1
 162 602 l 1
 172 605 l 2
 213 620 269 624 317 613 c 0
 390 598 439 555 453 494 c 2
 455 486 l 1
 456 250 l 1
 456 15 l 1
 453 13 l 2
 436 -4 374 -3 359 13 c 2
 356 15 l 1
 355 249 l 1
 354 484 l 1
 352 492 l 2
 345 523 327 549 302 566 c 0
 286 576 268 584 257 583 c 0
 235 580 204 559 187 534 c 0
 177 519 168 500 164 482 c 0
 162 473 162 468 162 244 c 2
 162 15 l 1
 159 13 l 2
 142 -4 79 -3 64 13 c 2
 61 16 l 1
 61 410 l 1
 61 803 l 1
 64 806 l 2
 69 811 79 815 94 818 c 0
EndSplineSet
Validated: 33
EndChar

StartChar: i
Encoding: 105 105 71
Width: 273
VWidth: 910
Flags: HW
LayerCount: 2
Fore
SplineSet
120 735 m 0
 124 735 132 735 140 735 c 0
 152 734 156 735 164 733 c 0
 175 729 181 727 185 722 c 0
 189 718 189 716 185 712 c 0
 181 707 175 705 164 701 c 0
 155 699 153 699 137 699 c 0
 121 699 118 699 110 701 c 0
 105 703 99 704 96 706 c 0
 91 709 86 713 86 716 c 0
 86 720 89 723 94 726 c 0
 99 729 112 734 120 735 c 0
105 613 m 0
 113 614 159 614 167 613 c 0
 188 610 202 603 202 596 c 0
 202 591 198 588 193 584 c 2
 188 583 l 1
 188 308 l 1
 188 32 l 1
 193 30 l 2
 198 26 202 23 202 19 c 0
 202 11 188 4 167 1 c 0
 158 0 115 0 106 1 c 0
 85 4 71 11 71 19 c 0
 71 23 77 28 82 31 c 2
 86 32 l 1
 86 308 l 1
 86 583 l 1
 82 583 l 2
 77 586 71 591 71 595 c 0
 71 603 85 610 105 613 c 0
EndSplineSet
Validated: 33
EndChar

StartChar: j
Encoding: 106 106 72
Width: 364
VWidth: 910
Flags: HW
LayerCount: 2
Fore
SplineSet
237 735 m 0
 241 735 249 735 257 735 c 0
 272 734 285 732 294 727 c 0
 299 724 304 720 304 717 c 0
 304 713 299 709 294 706 c 0
 291 704 285 703 280 701 c 0
 271 699 269 699 253 699 c 0
 237 699 235 699 227 701 c 0
 222 703 215 704 212 706 c 0
 207 709 202 713 202 716 c 0
 202 720 205 723 210 726 c 0
 215 729 229 734 237 735 c 0
221 613 m 0
 229 614 276 614 284 613 c 0
 305 610 319 603 319 596 c 0
 319 591 314 588 309 584 c 2
 304 583 l 1
 304 232 l 1
 303 -117 l 1
 301 -125 l 2
 289 -166 253 -194 201 -205 c 0
 183 -210 175 -209 152 -209 c 0
 129 -209 121 -210 103 -205 c 0
 43 -193 4 -155 0 -109 c 1
 0 -101 l 1
 3 -97 l 2
 9 -91 21 -88 40 -86 c 0
 64 -83 90 -88 97 -97 c 0
 100 -100 101 -101 101 -108 c 0
 102 -118 103 -126 108 -135 c 0
 113 -145 121 -154 130 -161 c 0
 136 -166 148 -172 152 -172 c 0
 156 -172 168 -166 175 -161 c 0
 187 -152 196 -137 201 -121 c 0
 202 -116 202 -100 203 233 c 2
 203 583 l 1
 198 583 l 2
 193 586 188 591 188 595 c 0
 188 603 201 610 221 613 c 0
EndSplineSet
Validated: 33
EndChar

StartChar: k
Encoding: 107 107 73
Width: 485
VWidth: 910
Flags: HW
LayerCount: 2
Fore
SplineSet
94 818 m 0
 119 822 149 816 159 806 c 2
 162 804 l 1
 162 607 l 1
 163 411 l 1
 261 508 l 2
 347 593 360 604 365 607 c 0
 390 619 439 616 452 602 c 0
 455 598 456 596 454 593 c 0
 454 592 405 543 346 485 c 0
 287 427 224 365 209 350 c 2
 180 321 l 1
 188 323 l 2
 199 326 225 326 236 324 c 0
 245 322 252 320 256 317 c 0
 260 314 455 22 455 18 c 0
 455 15 450 10 445 7 c 0
 423 -3 377 -2 360 10 c 0
 357 12 337 41 259 158 c 2
 162 304 l 1
 162 160 l 1
 162 15 l 1
 159 13 l 2
 142 -4 79 -3 64 13 c 2
 61 16 l 1
 61 410 l 1
 61 803 l 1
 64 806 l 2
 69 811 79 815 94 818 c 0
EndSplineSet
Validated: 33
EndChar

StartChar: l
Encoding: 108 108 74
Width: 273
VWidth: 910
Flags: HW
LayerCount: 2
Fore
SplineSet
105 818 m 0
 113 819 145 819 153 818 c 0
 168 816 180 811 185 806 c 2
 188 804 l 1
 188 418 l 1
 188 32 l 1
 193 30 l 2
 198 26 202 23 202 18 c 0
 202 11 188 4 167 1 c 0
 158 0 115 0 106 1 c 0
 85 4 71 11 71 19 c 0
 71 23 77 28 82 31 c 2
 86 32 l 1
 86 410 l 1
 86 787 l 1
 82 788 l 2
 77 791 71 796 71 800 c 0
 71 808 85 815 105 818 c 0
EndSplineSet
Validated: 33
EndChar

StartChar: m
Encoding: 109 109 75
Width: 728
VWidth: 910
Flags: HW
LayerCount: 2
Fore
SplineSet
215 619 m 0
 226 620 260 619 272 618 c 0
 307 613 336 603 358 588 c 0
 362 585 364 584 365 584 c 2
 365 584 367 586 371 588 c 0
 388 600 413 609 437 614 c 0
 457 618 467 619 492 619 c 0
 516 619 525 618 545 614 c 0
 607 601 651 565 664 515 c 1
 668 505 l 1
 668 260 l 1
 668 15 l 1
 665 13 l 2
 648 -4 586 -3 571 13 c 2
 568 15 l 1
 567 259 l 1
 567 503 l 1
 564 512 l 2
 556 542 533 568 505 579 c 0
 494 584 488 584 477 579 c 0
 449 568 426 542 418 512 c 2
 416 503 l 1
 415 259 l 1
 415 15 l 1
 412 13 l 2
 395 -4 333 -3 318 13 c 2
 315 15 l 1
 314 259 l 1
 314 503 l 1
 311 512 l 2
 302 543 279 569 249 580 c 0
 239 584 237 584 226 579 c 0
 211 573 193 558 183 543 c 0
 178 535 170 522 167 512 c 0
 162 496 162 513 162 254 c 2
 162 15 l 1
 159 13 l 2
 142 -4 79 -3 64 13 c 2
 61 16 l 1
 61 307 l 1
 61 598 l 1
 64 602 l 2
 77 616 126 619 150 607 c 2
 155 605 l 1
 159 607 l 2
 171 612 197 617 215 619 c 0
EndSplineSet
Validated: 33
EndChar

StartChar: n
Encoding: 110 110 76
Width: 516
VWidth: 910
Flags: HW
LayerCount: 2
Fore
SplineSet
239 619 m 0
 246 620 284 619 295 618 c 0
 380 606 438 561 453 494 c 2
 455 486 l 1
 456 250 l 1
 456 15 l 1
 453 13 l 2
 436 -4 374 -3 359 13 c 2
 356 15 l 1
 355 249 l 1
 354 484 l 1
 352 492 l 2
 345 523 327 549 302 566 c 0
 286 576 268 584 257 583 c 0
 235 580 204 559 187 534 c 0
 177 519 168 500 164 482 c 0
 162 473 162 468 162 244 c 2
 162 15 l 1
 159 13 l 2
 142 -4 79 -3 64 13 c 2
 61 16 l 1
 61 307 l 1
 61 598 l 1
 64 602 l 2
 72 610 93 615 117 614 c 0
 135 613 149 609 157 604 c 0
 161 601 161 601 163 603 c 0
 168 606 191 611 204 614 c 0
 216 617 222 618 239 619 c 0
EndSplineSet
Validated: 33
EndChar

StartChar: o
Encoding: 111 111 77
Width: 576
VWidth: 910
Flags: HW
LayerCount: 2
Fore
SplineSet
269 619 m 0
 276 620 314 619 325 618 c 0
 388 610 436 582 471 535 c 0
 505 489 526 429 534 354 c 0
 536 333 536 281 534 260 c 0
 528 205 516 160 496 121 c 0
 459 47 404 7 324 -4 c 0
 308 -6 268 -6 252 -4 c 0
 188 5 141 32 106 79 c 0
 72 125 50 185 42 260 c 0
 40 281 40 333 42 354 c 0
 55 474 102 559 178 597 c 0
 199 607 231 615 256 618 c 0
 261 619 267 619 269 619 c 0
305 579 m 0
 298 582 285 584 281 582 c 0
 267 579 257 573 245 565 c 0
 191 530 154 451 143 352 c 0
 141 331 141 283 143 262 c 0
 155 154 198 71 259 41 c 0
 281 29 296 29 318 41 c 0
 379 71 421 154 433 262 c 0
 435 283 435 331 433 352 c 0
 428 405 415 450 396 488 c 0
 372 534 340 567 305 579 c 0
EndSplineSet
Validated: 33
EndChar

StartChar: p
Encoding: 112 112 78
Width: 500
VWidth: 910
Flags: HW
LayerCount: 2
Fore
SplineSet
226 619 m 0
 241 620 273 619 288 617 c 0
 329 611 360 596 384 571 c 0
 423 530 446 463 453 363 c 0
 455 343 455 271 453 251 c 0
 442 101 397 25 311 2 c 0
 291 -3 276 -5 251 -5 c 0
 220 -6 199 -3 174 5 c 0
 168 6 163 8 163 8 c 2
 162 8 162 -36 162 -90 c 2
 162 -189 l 1
 159 -192 l 2
 142 -209 79 -208 64 -192 c 2
 61 -188 l 1
 61 205 l 1
 61 598 l 1
 64 602 l 2
 72 610 93 615 117 614 c 0
 132 613 149 610 155 605 c 0
 157 603 156 604 167 607 c 0
 184 612 205 617 226 619 c 0
262 578 m 0
 253 583 247 584 238 581 c 0
 213 575 186 555 168 531 c 2
 162 522 l 1
 162 308 l 1
 162 92 l 1
 168 84 l 2
 186 59 214 40 239 34 c 0
 249 31 253 31 262 36 c 0
 308 57 339 125 350 222 c 0
 354 252 353 268 353 308 c 0
 353 357 351 387 345 425 c 0
 331 504 302 559 262 578 c 0
EndSplineSet
Validated: 33
EndChar

StartChar: q
Encoding: 113 113 79
Width: 500
VWidth: 910
Flags: HW
LayerCount: 2
Fore
SplineSet
227 619 m 0
 262 622 301 618 334 607 c 2
 344 603 l 1
 348 606 l 2
 371 619 423 617 438 602 c 2
 441 599 l 1
 441 205 l 1
 441 -189 l 1
 438 -192 l 2
 421 -209 357 -208 342 -192 c 2
 340 -188 l 1
 340 -90 l 1
 340 9 l 1
 330 5 l 2
 304 -2 282 -5 250 -5 c 0
 224 -5 210 -3 189 2 c 0
 147 13 115 38 93 75 c 0
 68 118 52 172 47 251 c 0
 45 271 45 343 47 363 c 0
 60 531 114 609 227 619 c 0
268 579 m 0
 258 583 250 584 245 582 c 0
 197 563 163 495 151 392 c 0
 147 362 147 347 147 308 c 0
 147 258 150 227 156 189 c 0
 170 110 198 55 238 36 c 0
 247 31 251 31 261 34 c 0
 286 40 314 60 333 85 c 2
 340 94 l 1
 340 307 l 1
 340 521 l 1
 335 527 l 2
 316 552 293 571 268 579 c 0
EndSplineSet
Validated: 33
EndChar

StartChar: r
Encoding: 114 114 80
Width: 455
VWidth: 910
Flags: HW
LayerCount: 2
Fore
SplineSet
218 619 m 0
 233 620 267 619 282 617 c 0
 328 610 366 592 391 565 c 0
 411 544 423 518 425 490 c 2
 425 480 l 1
 421 476 l 2
 417 472 410 469 399 466 c 0
 388 464 361 464 350 466 c 0
 339 469 332 472 328 476 c 0
 324 480 324 479 324 484 c 0
 324 502 317 525 306 541 c 0
 300 550 288 563 278 569 c 0
 264 578 248 584 240 583 c 0
 229 581 212 573 199 563 c 0
 180 548 167 522 163 497 c 0
 162 492 162 418 162 261 c 2
 162 32 l 1
 167 30 l 2
 172 26 177 23 177 19 c 0
 177 11 163 4 142 1 c 0
 133 0 89 0 80 1 c 0
 59 4 46 11 46 19 c 0
 46 23 51 28 56 31 c 2
 61 32 l 1
 61 315 l 1
 61 598 l 1
 64 602 l 2
 77 616 126 619 151 607 c 2
 156 605 l 1
 164 608 l 2
 181 613 199 617 218 619 c 0
EndSplineSet
Validated: 33
EndChar

StartChar: s
Encoding: 115 115 81
Width: 516
VWidth: 910
Flags: HW
LayerCount: 2
Fore
SplineSet
234 619 m 0
 274 623 320 616 355 604 c 0
 369 599 391 588 402 580 c 0
 413 573 431 555 437 546 c 0
 448 529 454 510 456 491 c 0
 456 482 456 482 454 479 c 0
 450 474 442 471 431 468 c 0
 425 466 421 466 406 466 c 0
 385 466 377 467 365 472 c 0
 357 476 355 479 355 490 c 0
 352 525 331 557 296 573 c 0
 284 578 272 582 262 583 c 0
 252 583 244 580 230 574 c 0
 198 559 173 530 162 495 c 0
 157 478 155 457 157 442 c 0
 158 432 162 417 167 409 c 0
 177 390 198 370 223 354 c 0
 240 344 265 332 304 316 c 0
 319 311 348 295 360 289 c 0
 405 264 434 235 448 203 c 0
 464 164 456 111 427 70 c 0
 420 60 403 43 392 35 c 0
 366 15 333 1 294 -4 c 0
 286 -5 276 -5 259 -5 c 0
 234 -5 223 -5 203 0 c 0
 119 15 66 63 61 124 c 0
 61 133 61 133 63 136 c 0
 67 141 75 144 86 147 c 0
 92 149 96 148 112 148 c 0
 132 148 140 147 152 142 c 0
 160 138 162 136 162 125 c 0
 164 109 169 92 178 78 c 0
 183 69 196 57 205 51 c 0
 220 41 240 33 255 32 c 0
 260 32 263 32 269 35 c 0
 297 43 325 67 340 96 c 0
 345 108 350 124 353 136 c 0
 355 149 355 172 352 182 c 0
 342 221 312 252 254 279 c 0
 245 284 232 289 226 292 c 0
 171 315 142 331 116 350 c 0
 83 375 65 399 57 431 c 0
 54 442 54 468 57 482 c 0
 64 516 79 541 104 565 c 0
 136 596 181 614 234 619 c 0
EndSplineSet
Validated: 33
EndChar

StartChar: t
Encoding: 116 116 82
Width: 364
VWidth: 910
Flags: HW
LayerCount: 2
Fore
SplineSet
165 818 m 0
 190 822 220 816 230 806 c 2
 233 804 l 1
 233 709 l 1
 233 614 l 1
 263 614 l 2
 299 614 312 612 324 606 c 0
 329 604 334 599 334 596 c 0
 334 592 329 587 324 585 c 0
 312 579 299 577 263 577 c 2
 233 577 l 1
 233 305 l 1
 233 32 l 1
 238 30 l 2
 243 26 248 23 248 19 c 0
 248 11 234 4 213 1 c 0
 204 0 160 0 151 1 c 0
 130 4 117 11 117 19 c 0
 117 23 122 28 127 31 c 2
 132 32 l 1
 132 305 l 1
 132 577 l 1
 102 577 l 2
 65 577 53 579 40 585 c 0
 35 587 30 592 30 595 c 0
 30 599 35 604 40 606 c 0
 53 612 65 614 102 614 c 2
 132 614 l 1
 132 708 l 1
 132 803 l 1
 135 806 l 2
 140 811 150 815 165 818 c 0
EndSplineSet
Validated: 33
EndChar

StartChar: u
Encoding: 117 117 83
Width: 516
VWidth: 910
Flags: HW
LayerCount: 2
Fore
SplineSet
94 613 m 0
 119 617 149 612 159 602 c 2
 162 599 l 1
 162 365 l 1
 163 131 l 1
 165 123 l 2
 172 91 189 66 214 49 c 0
 225 42 231 39 241 35 c 0
 248 32 252 33 259 33 c 0
 266 33 269 32 276 35 c 0
 286 39 292 42 303 49 c 0
 328 66 345 91 352 123 c 2
 354 131 l 1
 355 365 l 1
 356 599 l 1
 359 602 l 2
 374 618 436 619 453 602 c 2
 456 599 l 1
 456 308 l 1
 456 15 l 1
 453 13 l 2
 448 8 436 3 421 1 c 0
 397 -2 369 3 360 11 c 0
 358 13 358 13 350 10 c 0
 335 4 311 -1 291 -4 c 0
 277 -6 240 -6 227 -4 c 0
 203 -1 180 5 162 12 c 0
 109 33 75 71 64 120 c 2
 62 129 l 1
 61 363 l 1
 61 598 l 1
 64 602 l 2
 69 607 79 610 94 613 c 0
EndSplineSet
Validated: 33
EndChar

StartChar: v
Encoding: 118 118 84
Width: 485
VWidth: 910
Flags: HW
LayerCount: 2
Fore
SplineSet
79 613 m 0
 89 614 105 614 114 613 c 0
 129 610 138 607 143 602 c 0
 146 599 148 593 194 360 c 0
 220 229 242 122 242 121 c 0
 242 120 264 227 291 359 c 0
 337 591 339 599 341 602 c 0
 354 616 404 619 429 607 c 0
 435 604 440 600 440 596 c 0
 440 591 323 17 321 14 c 0
 318 9 308 5 295 2 c 0
 285 0 200 0 191 2 c 0
 177 5 167 9 164 14 c 0
 162 17 46 591 46 596 c 0
 46 603 61 610 79 613 c 0
EndSplineSet
Validated: 33
EndChar

StartChar: w
Encoding: 119 119 85
Width: 758
VWidth: 910
Flags: HW
LayerCount: 2
Fore
SplineSet
79 613 m 0
 89 614 105 614 114 613 c 0
 129 610 139 607 144 602 c 0
 146 599 147 592 191 362 c 0
 216 233 238 127 238 127 c 1
 238 127 257 227 280 349 c 0
 304 471 325 577 326 584 c 0
 329 597 329 599 332 602 c 0
 347 618 410 619 426 603 c 2
 430 599 l 1
 475 363 l 2
 500 233 521 127 521 127 c 1
 521 127 542 233 567 362 c 0
 611 592 612 599 614 602 c 0
 627 616 677 619 702 607 c 0
 708 604 713 600 713 596 c 0
 713 594 605 31 602 19 c 0
 600 10 589 5 569 1 c 0
 556 -1 485 -1 472 1 c 0
 454 5 443 10 441 17 c 0
 440 18 393 265 380 331 c 0
 380 332 366 268 351 189 c 0
 314 -3 319 16 315 13 c 0
 310 8 301 4 286 1 c 0
 273 -1 202 -1 189 1 c 0
 169 5 159 10 157 19 c 0
 154 31 46 594 46 596 c 0
 46 603 61 610 79 613 c 0
EndSplineSet
Validated: 33
EndChar

StartChar: x
Encoding: 120 120 86
Width: 485
VWidth: 910
Flags: HW
LayerCount: 2
Fore
SplineSet
88 613 m 0
 113 617 143 612 152 602 c 0
 154 600 186 537 233 441 c 2
 243 421 l 1
 287 510 l 2
 311 558 331 600 332 602 c 0
 345 616 395 619 420 607 c 0
 426 604 431 600 431 596 c 0
 431 594 404 541 362 455 c 2
 294 317 l 1
 367 168 l 2
 413 76 440 20 440 18 c 0
 440 16 439 15 437 13 c 0
 421 -3 359 -4 342 12 c 0
 340 14 326 44 291 113 c 0
 265 168 242 212 242 212 c 1
 242 212 220 168 194 114 c 0
 168 59 145 14 143 13 c 0
 130 -1 81 -5 56 7 c 0
 50 10 46 14 46 18 c 0
 46 20 72 76 118 168 c 2
 191 317 l 1
 123 455 l 2
 81 541 55 594 55 596 c 0
 55 603 69 610 88 613 c 0
EndSplineSet
Validated: 33
EndChar

StartChar: y
Encoding: 121 121 87
Width: 485
VWidth: 910
Flags: HW
LayerCount: 2
Fore
SplineSet
79 613 m 0
 89 614 105 614 114 613 c 0
 129 610 138 607 143 602 c 0
 146 599 149 584 194 410 c 0
 220 305 242 219 242 219 c 2
 242 218 264 304 291 409 c 0
 335 583 339 599 341 602 c 0
 354 616 404 619 429 607 c 0
 435 604 440 600 440 596 c 0
 440 595 405 457 362 289 c 0
 319 121 274 -57 262 -104 c 0
 242 -181 241 -190 238 -192 c 0
 227 -204 190 -208 162 -201 c 0
 149 -198 140 -192 140 -187 c 0
 140 -186 152 -140 166 -84 c 0
 181 -28 191 17 191 19 c 0
 191 20 158 150 118 308 c 0
 78 465 46 595 46 596 c 0
 46 603 61 610 79 613 c 0
EndSplineSet
Validated: 33
EndChar

StartChar: z
Encoding: 122 122 88
Width: 485
VWidth: 910
Flags: HW
LayerCount: 2
Fore
SplineSet
79 613 m 0
 87 614 397 614 405 613 c 0
 425 610 440 603 440 596 c 0
 440 594 389 495 299 317 c 0
 222 165 158 40 157 39 c 0
 157 37 164 37 278 37 c 0
 350 37 401 37 405 36 c 0
 420 34 432 30 437 25 c 0
 446 16 432 5 405 1 c 0
 396 0 89 0 80 1 c 0
 60 4 46 11 46 18 c 0
 46 20 96 120 186 298 c 0
 263 450 327 574 328 575 c 0
 328 577 322 577 208 577 c 0
 136 577 84 577 80 578 c 0
 59 581 46 588 46 596 c 0
 46 603 60 610 79 613 c 0
EndSplineSet
Validated: 33
EndChar

StartChar: braceleft
Encoding: 123 123 89
Width: 243
VWidth: 910
Flags: HW
LayerCount: 2
Fore
SplineSet
137 848 m 0
 159 850 181 850 194 845 c 0
 205 842 213 836 213 831 c 0
 213 827 208 822 203 820 c 0
 194 815 178 812 164 812 c 0
 159 812 156 812 152 809 c 0
 137 802 129 778 133 749 c 0
 136 720 143 695 168 624 c 0
 192 558 200 532 205 504 c 0
 207 489 207 463 204 454 c 0
 199 437 190 423 177 414 c 2
 169 410 l 1
 176 406 l 2
 190 397 200 382 204 367 c 0
 207 357 208 341 206 327 c 0
 203 297 194 266 164 183 c 0
 147 135 140 109 135 84 c 0
 132 69 132 45 134 36 c 0
 138 22 144 14 152 10 c 0
 156 7 159 7 164 7 c 0
 178 7 194 4 203 -1 c 0
 208 -3 213 -8 213 -11 c 0
 213 -16 205 -22 194 -25 c 0
 168 -33 112 -30 80 -17 c 0
 55 -6 39 10 34 33 c 0
 31 42 30 58 32 72 c 0
 35 102 44 133 74 216 c 0
 91 264 98 290 103 315 c 0
 106 330 106 353 104 362 c 0
 100 376 94 385 86 389 c 0
 82 392 79 391 74 391 c 0
 60 391 44 395 35 400 c 0
 30 402 25 407 25 411 c 0
 25 414 30 419 35 421 c 0
 44 426 60 429 74 429 c 0
 79 429 82 428 86 431 c 0
 101 438 109 462 105 492 c 0
 102 520 94 545 68 618 c 0
 45 683 38 708 33 736 c 0
 31 751 31 777 34 787 c 0
 38 799 42 808 51 817 c 0
 68 834 97 844 137 848 c 0
EndSplineSet
Validated: 33
EndChar

StartChar: bar
Encoding: 124 124 90
Width: 303
VWidth: 910
Flags: HW
LayerCount: 2
Fore
SplineSet
134 818 m 0
 159 822 189 816 199 806 c 2
 202 804 l 1
 202 410 l 1
 202 15 l 1
 199 13 l 2
 182 -4 119 -3 104 13 c 2
 101 16 l 1
 101 410 l 1
 101 803 l 1
 104 806 l 2
 109 811 119 815 134 818 c 0
EndSplineSet
Validated: 33
EndChar

StartChar: braceright
Encoding: 125 125 91
Width: 243
VWidth: 910
Flags: HW
LayerCount: 2
Fore
SplineSet
52 848 m 0
 67 850 94 850 116 846 c 0
 163 838 190 819 199 785 c 0
 201 777 201 774 201 759 c 0
 202 726 195 700 169 618 c 0
 149 557 143 535 138 508 c 0
 136 493 136 469 139 460 c 0
 143 445 150 436 159 431 c 0
 163 430 165 429 170 429 c 0
 183 429 200 426 208 421 c 0
 213 419 218 414 218 411 c 0
 218 407 213 402 208 400 c 0
 200 395 183 391 170 391 c 0
 162 391 157 389 151 383 c 0
 136 368 133 341 141 301 c 0
 145 277 152 254 169 202 c 0
 185 150 193 124 198 100 c 0
 213 21 187 -15 109 -27 c 0
 94 -30 67 -31 56 -29 c 0
 45 -28 34 -26 29 -23 c 0
 24 -20 19 -15 19 -11 c 0
 19 -8 24 -3 29 -1 c 0
 37 4 54 7 67 7 c 0
 75 7 80 9 86 15 c 0
 101 30 104 57 96 98 c 0
 92 121 85 145 69 197 c 0
 52 249 45 274 40 299 c 0
 33 334 35 361 45 380 c 0
 50 389 61 402 69 407 c 2
 75 410 l 1
 67 415 l 2
 52 425 43 439 38 456 c 0
 36 464 36 466 36 482 c 0
 36 500 38 508 43 533 c 0
 47 553 54 576 69 624 c 0
 88 684 94 706 99 734 c 0
 101 749 101 772 98 781 c 0
 94 796 87 805 78 810 c 0
 74 811 72 812 67 812 c 0
 54 812 37 815 29 820 c 0
 24 822 19 827 19 831 c 0
 19 832 20 834 22 836 c 0
 27 841 37 845 52 848 c 0
EndSplineSet
Validated: 33
EndChar

StartChar: asciitilde
Encoding: 126 126 92
Width: 607
VWidth: 910
Flags: HW
LayerCount: 2
Fore
SplineSet
157 417 m 0
 167 418 200 417 211 416 c 0
 251 410 280 395 308 367 c 0
 322 353 331 341 345 322 c 0
 373 283 387 265 401 253 c 0
 410 245 425 236 429 236 c 0
 431 236 442 243 448 248 c 0
 453 253 462 265 466 272 c 0
 471 280 474 293 475 302 c 0
 476 312 479 315 486 319 c 0
 511 331 561 327 574 312 c 0
 577 309 577 309 577 303 c 0
 572 251 528 210 467 200 c 0
 428 193 387 196 355 210 c 0
 334 218 317 230 299 248 c 0
 285 262 276 273 262 292 c 0
 234 331 220 349 206 361 c 0
 197 369 182 379 178 379 c 0
 176 379 165 371 159 366 c 0
 154 361 145 349 141 342 c 0
 136 334 133 321 132 313 c 0
 131 302 128 300 121 296 c 0
 96 284 46 287 33 302 c 0
 30 305 30 305 30 311 c 0
 35 357 70 395 121 410 c 0
 132 414 143 415 157 417 c 0
EndSplineSet
Validated: 33
EndChar

StartChar: Adieresis
Encoding: 196 196 93
Width: 576
VWidth: 910
Flags: HW
LayerCount: 2
Fore
SplineSet
186 893 m 0
 225 898 268 887 268 872 c 0
 268 860 240 849 208 849 c 0
 175 849 147 860 147 872 c 0
 147 881 163 890 186 893 c 0
348 893 m 0
 387 898 430 887 430 872 c 0
 430 860 402 849 370 849 c 0
 337 849 309 860 309 872 c 0
 309 881 325 890 348 893 c 0
225 818 m 0
 236 819 339 819 351 818 c 0
 373 814 382 809 385 797 c 0
 398 731 531 20 531 18 c 0
 531 16 530 15 528 13 c 0
 511 -4 448 -3 433 13 c 0
 430 16 430 17 395 201 c 0
 376 304 360 389 360 390 c 2
 360 391 l 1
 288 391 l 1
 217 391 l 1
 216 390 l 2
 216 389 200 304 181 201 c 0
 146 17 146 16 143 13 c 0
 128 -3 65 -4 48 13 c 0
 46 15 46 16 46 18 c 0
 46 20 178 731 191 797 c 0
 193 808 203 814 225 818 c 0
320 601 m 0
 303 695 289 772 289 772 c 2
 288 773 224 431 224 430 c 0
 224 429 254 429 289 429 c 0
 337 429 352 429 352 430 c 0
 352 431 337 508 320 601 c 0
EndSplineSet
Validated: 33
EndChar

StartChar: Odieresis
Encoding: 214 214 94
Width: 698
VWidth: 910
Flags: HW
LayerCount: 2
Fore
SplineSet
247 893 m 0
 286 898 329 887 329 872 c 0
 329 860 301 849 269 849 c 0
 236 849 208 860 208 872 c 0
 208 881 224 890 247 893 c 0
409 893 m 0
 448 898 491 887 491 872 c 0
 491 860 463 849 431 849 c 0
 398 849 370 860 370 872 c 0
 370 881 386 890 409 893 c 0
327 824 m 0
 337 825 378 824 390 823 c 0
 486 811 554 763 601 672 c 0
 650 578 670 439 651 312 c 0
 636 206 597 121 541 66 c 0
 501 27 452 4 389 -4 c 0
 371 -6 327 -6 309 -4 c 0
 212 8 145 56 97 147 c 0
 48 241 28 380 47 507 c 0
 62 613 101 699 157 754 c 0
 201 797 254 819 327 824 c 0
372 785 m 0
 362 787 345 788 336 786 c 0
 314 782 290 772 268 755 c 0
 223 720 186 658 165 583 c 0
 124 441 138 267 198 153 c 0
 231 90 275 49 326 35 c 0
 333 33 336 33 350 33 c 0
 363 33 365 33 372 35 c 0
 443 55 503 130 533 237 c 0
 571 368 562 527 512 643 c 0
 479 719 428 770 372 785 c 0
EndSplineSet
Validated: 33
EndChar

StartChar: Udieresis
Encoding: 220 220 95
Width: 546
VWidth: 910
Flags: HW
LayerCount: 2
Fore
SplineSet
171 893 m 0
 210 898 253 887 253 872 c 0
 253 860 225 849 193 849 c 0
 160 849 132 860 132 872 c 0
 132 881 148 890 171 893 c 0
332 893 m 0
 371 898 414 887 414 872 c 0
 414 860 386 849 354 849 c 0
 321 849 293 860 293 872 c 0
 293 881 309 890 332 893 c 0
94 818 m 0
 119 822 149 816 159 806 c 2
 162 804 l 1
 162 474 l 1
 163 145 l 1
 165 136 l 2
 174 94 200 60 238 42 c 0
 252 35 261 33 274 33 c 0
 286 33 294 35 309 42 c 0
 346 60 373 94 382 136 c 2
 384 145 l 1
 385 474 l 1
 386 804 l 1
 389 806 l 2
 404 822 466 823 483 806 c 2
 486 804 l 1
 486 473 l 1
 485 143 l 1
 483 134 l 2
 476 103 463 79 441 56 c 0
 425 41 409 28 388 18 c 0
 313 -17 208 -13 142 27 c 0
 122 39 101 59 89 76 c 0
 77 93 69 112 64 134 c 2
 62 143 l 1
 61 472 l 1
 61 803 l 1
 64 806 l 2
 69 811 79 815 94 818 c 0
EndSplineSet
Validated: 33
EndChar

StartChar: adieresis
Encoding: 228 228 96
Width: 516
VWidth: 910
Flags: HW
LayerCount: 2
Fore
SplineSet
156 688 m 0
 195 693 238 682 238 667 c 0
 238 655 209 644 177 644 c 0
 144 644 117 655 117 667 c 0
 117 676 133 685 156 688 c 0
318 688 m 0
 357 693 400 682 400 667 c 0
 400 655 372 644 340 644 c 0
 307 644 279 655 279 667 c 0
 279 676 295 685 318 688 c 0
234 619 m 0
 246 620 282 619 295 618 c 0
 315 615 329 611 347 606 c 2
 359 603 l 1
 361 604 l 2
 382 619 438 617 453 602 c 2
 456 599 l 1
 456 308 l 1
 456 15 l 1
 453 13 l 2
 438 -2 382 -5 361 10 c 2
 359 12 l 1
 347 8 l 2
 321 0 297 -4 267 -5 c 0
 216 -6 173 4 142 27 c 0
 100 58 74 115 62 200 c 0
 51 276 52 376 66 443 c 0
 89 558 139 610 234 619 c 0
275 580 m 0
 264 583 256 583 250 581 c 0
 219 568 192 533 177 481 c 0
 148 387 148 228 177 134 c 0
 192 86 216 51 244 36 c 0
 253 31 257 31 265 33 c 0
 294 38 327 58 350 87 c 2
 355 94 l 1
 355 308 l 1
 355 521 l 1
 350 528 l 2
 330 553 301 573 275 580 c 0
EndSplineSet
Validated: 33
EndChar

StartChar: odieresis
Encoding: 246 246 97
Width: 576
VWidth: 910
Flags: HW
LayerCount: 2
Fore
SplineSet
186 688 m 0
 225 693 268 682 268 667 c 0
 268 655 240 644 208 644 c 0
 175 644 147 655 147 667 c 0
 147 676 163 685 186 688 c 0
348 688 m 0
 387 693 430 682 430 667 c 0
 430 655 402 644 370 644 c 0
 337 644 309 655 309 667 c 0
 309 676 325 685 348 688 c 0
269 619 m 0
 276 620 314 619 325 618 c 0
 388 610 436 582 471 535 c 0
 505 489 526 429 534 354 c 0
 536 333 536 281 534 260 c 0
 528 205 516 160 496 121 c 0
 459 47 404 7 324 -4 c 0
 308 -6 268 -6 252 -4 c 0
 188 5 141 32 106 79 c 0
 72 125 50 185 42 260 c 0
 40 281 40 333 42 354 c 0
 55 474 102 559 178 597 c 0
 199 607 231 615 256 618 c 0
 261 619 267 619 269 619 c 0
305 579 m 0
 298 582 285 584 281 582 c 0
 267 579 257 573 245 565 c 0
 191 530 154 451 143 352 c 0
 141 331 141 283 143 262 c 0
 155 154 198 71 259 41 c 0
 281 29 296 29 318 41 c 0
 379 71 421 154 433 262 c 0
 435 283 435 331 433 352 c 0
 428 405 415 450 396 488 c 0
 372 534 340 567 305 579 c 0
EndSplineSet
Validated: 33
EndChar

StartChar: udieresis
Encoding: 252 252 98
Width: 516
VWidth: 910
Flags: HW
LayerCount: 2
Fore
SplineSet
156 688 m 0
 195 693 238 682 238 667 c 0
 238 655 209 644 177 644 c 0
 144 644 117 655 117 667 c 0
 117 676 133 685 156 688 c 0
318 688 m 0
 357 693 400 682 400 667 c 0
 400 655 372 644 340 644 c 0
 307 644 279 655 279 667 c 0
 279 676 295 685 318 688 c 0
94 613 m 0
 119 617 149 612 159 602 c 2
 162 599 l 1
 162 365 l 1
 163 131 l 1
 165 123 l 2
 172 91 189 66 214 49 c 0
 225 42 231 39 241 35 c 0
 248 32 252 33 259 33 c 0
 266 33 269 32 276 35 c 0
 286 39 292 42 303 49 c 0
 328 66 345 91 352 123 c 2
 354 131 l 1
 355 365 l 1
 356 599 l 1
 359 602 l 2
 374 618 436 619 453 602 c 2
 456 599 l 1
 456 308 l 1
 456 15 l 1
 453 13 l 2
 448 8 436 3 421 1 c 0
 397 -2 369 3 360 11 c 0
 358 13 358 13 350 10 c 0
 335 4 311 -1 291 -4 c 0
 277 -6 240 -6 227 -4 c 0
 203 -1 180 5 162 12 c 0
 109 33 75 71 64 120 c 2
 62 129 l 1
 61 363 l 1
 61 598 l 1
 64 602 l 2
 69 607 79 610 94 613 c 0
EndSplineSet
Validated: 33
EndChar

StartChar: degree
Encoding: 176 176 99
Width: 425
VWidth: 910
Flags: HW
LayerCount: 2
Fore
SplineSet
195 818 m 0
 200 819 236 818 244 817 c 0
 286 812 319 798 345 773 c 0
 401 718 412 628 368 561 c 0
 345 525 308 501 262 492 c 0
 245 488 234 487 213 487 c 0
 191 487 180 488 163 492 c 0
 117 501 80 525 57 561 c 0
 6 638 30 745 106 792 c 0
 127 805 155 814 183 817 c 0
 188 818 193 818 195 818 c 0
221 779 m 0
 216 781 213 782 213 782 c 2
 210 782 196 776 190 772 c 0
 158 751 137 713 132 669 c 0
 129 640 134 609 147 583 c 0
 161 556 183 534 205 526 c 2
 212 523 l 1
 219 525 l 2
 241 533 264 556 278 583 c 0
 300 627 300 678 278 722 c 0
 264 749 243 770 221 779 c 0
EndSplineSet
Validated: 33
EndChar

StartChar: quotesingle
Encoding: 39 39 100
Width: 121
VWidth: 910
Flags: HW
LayerCount: 2
Fore
SplineSet
43 818 m 0
 68 822 98 816 108 806 c 2
 111 804 l 1
 111 740 l 2
 111 678 111 677 109 674 c 0
 104 666 84 661 61 661 c 0
 37 661 17 666 12 674 c 0
 10 677 10 678 10 740 c 2
 10 803 l 1
 13 806 l 2
 18 811 28 815 43 818 c 0
EndSplineSet
Validated: 33
EndChar

StartChar: grave
Encoding: 96 96 101
Width: 152
VWidth: 910
Flags: HW
LayerCount: 2
Fore
SplineSet
58 818 m 0
 67 819 91 819 100 817 c 0
 115 813 122 811 137 796 c 0
 167 767 185 728 188 687 c 0
 188 678 188 677 186 674 c 0
 181 666 160 661 137 661 c 0
 118 661 104 664 94 670 c 0
 89 673 86 677 86 683 c 0
 86 690 85 706 82 715 c 0
 79 726 75 734 70 745 c 0
 62 762 51 775 32 792 c 0
 25 799 23 801 28 806 c 0
 33 811 43 815 58 818 c 0
EndSplineSet
Validated: 33
EndChar
